<?xml version="1.0" encoding="UTF-8" standalone="no"?>
<!-- Created with Inkscape (http://www.inkscape.org/) -->

<svg
   xmlns:dc="http://purl.org/dc/elements/1.1/"
   xmlns:cc="http://creativecommons.org/ns#"
   xmlns:rdf="http://www.w3.org/1999/02/22-rdf-syntax-ns#"
   xmlns:svg="http://www.w3.org/2000/svg"
   xmlns="http://www.w3.org/2000/svg"
   xmlns:sodipodi="http://sodipodi.sourceforge.net/DTD/sodipodi-0.dtd"
   xmlns:inkscape="http://www.inkscape.org/namespaces/inkscape"
   width="320"
   height="200"
   id="svg2"
   version="1.1"
   inkscape:version="0.48.5 r10040"
   sodipodi:docname="activismo.svg"
   inkscape:export-filename="/home/donkeysharp/Multimedia/Imagenes/inkscape/hacklab/activismo.png"
   inkscape:export-xdpi="90"
   inkscape:export-ydpi="90">
  <defs
     id="defs4">
    <filter
       inkscape:collect="always"
       id="filter3972"
       color-interpolation-filters="sRGB">
      <feGaussianBlur
         inkscape:collect="always"
         stdDeviation="0.86671612"
         id="feGaussianBlur3974" />
    </filter>
    <filter
       inkscape:collect="always"
       id="filter4094">
      <feGaussianBlur
         inkscape:collect="always"
         stdDeviation="1.574707"
         id="feGaussianBlur4096" />
    </filter>
  </defs>
  <sodipodi:namedview
     id="base"
     pagecolor="#ffffff"
     bordercolor="#666666"
     borderopacity="1.0"
     inkscape:pageopacity="0.0"
     inkscape:pageshadow="2"
     inkscape:zoom="1"
     inkscape:cx="33.74582"
     inkscape:cy="160.31111"
     inkscape:document-units="px"
     inkscape:current-layer="layer3"
     showgrid="false"
     inkscape:window-width="1366"
     inkscape:window-height="716"
     inkscape:window-x="0"
     inkscape:window-y="30"
     inkscape:window-maximized="1"
     inkscape:snap-page="false"
     inkscape:snap-grids="true"
     showguides="true"
     inkscape:guide-bbox="true" />
  <metadata
     id="metadata7">
    <rdf:RDF>
      <cc:Work
         rdf:about="">
        <dc:format>image/svg+xml</dc:format>
        <dc:type
           rdf:resource="http://purl.org/dc/dcmitype/StillImage" />
        <dc:title></dc:title>
      </cc:Work>
    </rdf:RDF>
  </metadata>
  <g
     inkscape:label="Activismo"
     inkscape:groupmode="layer"
     id="layer1"
     transform="translate(0,-852.36218)">
    <g
       inkscape:groupmode="layer"
       id="layer3"
       inkscape:label="background"
       style="display:inline">
      <rect
         style="fill:#040404;fill-opacity:1;stroke:none"
         id="rect3772"
         width="320"
         height="200"
         x="0"
         y="852.36218" />
    </g>
    <g
       inkscape:groupmode="layer"
       id="layer4"
       inkscape:label="body"
       style="display:inline"
       sodipodi:insensitive="true">
      <text
         xml:space="preserve"
         style="font-size:9.41794682px;font-style:normal;font-variant:normal;font-weight:normal;font-stretch:normal;line-height:125%;letter-spacing:0px;word-spacing:0px;opacity:0.98545454;fill:#23a86d;fill-opacity:1;stroke:none;filter:url(#filter3972);font-family:TeX Gyre Adventor;-inkscape-font-specification:TeX Gyre Adventor"
         x="1.4929862"
         y="919.52472"
         id="text3775"
         sodipodi:linespacing="125%"
         transform="matrix(1.2434521,0,0,1.3310339,4.6318098,-358.9236)"><tspan
           sodipodi:role="line"
           x="1.4929862"
           y="919.52472"
           id="tspan3795"
           style="font-size:6.27863121px">-----BEGIN PGP MESSAGE-----</tspan><tspan
           sodipodi:role="line"
           x="1.4929862"
           y="927.37299"
           id="tspan3853"
           style="font-size:6.27863121px">Charset: utf-8</tspan><tspan
           sodipodi:role="line"
           x="1.4929862"
           y="935.22131"
           id="tspan3855"
           style="font-size:6.27863121px">Version: GnuPG v2.0.22 (GNU/Linux)</tspan><tspan
           sodipodi:role="line"
           x="1.4929862"
           y="943.06958"
           id="tspan3857"
           style="font-size:6.27863121px" /><tspan
           sodipodi:role="line"
           x="1.4929862"
           y="950.91785"
           id="tspan3859"
           style="font-size:6.27863121px">hQEMA6ymHFSR8z6cAQf/dyguC5aItQIXpH6dr37Q8gMds1WQ4oMk7XzfZ19+Gw4i</tspan><tspan
           sodipodi:role="line"
           x="1.4929862"
           y="958.76617"
           id="tspan3861"
           style="font-size:6.27863121px">UcRbfB5QVU/qwKOI6pUVn/idzTPA4V9g2b/icVGBwzFSVTdVlNZpzQBCVlVfVrhV</tspan><tspan
           sodipodi:role="line"
           x="1.4929862"
           y="966.61444"
           id="tspan3863"
           style="font-size:6.27863121px">Nqvn/tGDU5W8LZwQY+76tMuY8Ztm32blT0LPMd71lxOEx3pOEbRAqpEbfb7fBj8u</tspan><tspan
           sodipodi:role="line"
           x="1.4929862"
           y="974.46277"
           id="tspan3865"
           style="font-size:6.27863121px">BSoDkT/H9dm1wVcj6dySBwI0XVmF0V/w/hAWl3PXy2ZPxMQOwSmK7t2EPfIVUMa4</tspan><tspan
           sodipodi:role="line"
           x="1.4929862"
           y="982.31104"
           id="tspan3867"
           style="font-size:6.27863121px">nSQnpsc6gI/hiZskB4fgW9FjzJv1vwnC5uZQ3cbcCf6f7XprF50fFsMAFiiQgU1M</tspan><tspan
           sodipodi:role="line"
           x="1.4929862"
           y="990.1593"
           id="tspan3869"
           style="font-size:6.27863121px">yFswdmszHsga46BmYNqUvBz1RFwhD/+xmBiR6wmSq4UBDAMZzuPL5f4NfgEH/iH+</tspan><tspan
           sodipodi:role="line"
           x="1.4929862"
           y="998.00763"
           id="tspan3871"
           style="font-size:6.27863121px">Yn+tYGIICj+A7pNbpFZdNcae72Xb3j+/iU8IQjm1NwOwk1PX4cyIOBnlNFT3BeWE</tspan><tspan
           sodipodi:role="line"
           x="1.4929862"
           y="1005.8559"
           id="tspan3873"
           style="font-size:6.27863121px">ZTL/Jn2qRGhrttxwk9wQYQjjHRDMMtcSLhN+PeYRtuEO31T2AIZBSm9nbHrirccx</tspan><tspan
           sodipodi:role="line"
           x="1.4929862"
           y="1013.7042"
           id="tspan3875"
           style="font-size:6.27863121px">8ughGJqKQUYsZjVqoIqKi7A+8S1ddYfbyM0hFNxysldb/+sf+F9rVBLs9HlOBLVR</tspan><tspan
           sodipodi:role="line"
           x="1.4929862"
           y="1021.5525"
           id="tspan3877"
           style="font-size:6.27863121px">YLSR76tID4hT/6hkpI1KTvw8W6Y8kf3E7Z1f0Btk8j1LlcEYYZvhWS+A+IXzjwKS</tspan><tspan
           sodipodi:role="line"
           x="1.4929862"
           y="1029.4008"
           id="tspan3879"
           style="font-size:6.27863121px">HVjXC/3UdooCpFaWeiMdZ6nQFnFcfRD6X5a+YusxZHKUI4JiBNKD//b0uGB9MtOc</tspan><tspan
           sodipodi:role="line"
           x="1.4929862"
           y="1037.249"
           id="tspan3881"
           style="font-size:6.27863121px">/Yliybe4h9WIxLwrgHaFAQwDdE6pn0MgRDcBCACCVKMb4X/8gTIjnyHGbwie/ftB</tspan><tspan
           sodipodi:role="line"
           x="1.4929862"
           y="1045.0973"
           id="tspan3883"
           style="font-size:6.27863121px">1WRUcspjb9Y9CvuZCzVyNFt/lgkHaZnEH/efvCi7eQGO78pyhvgCLAO3jUwOF6BW</tspan><tspan
           sodipodi:role="line"
           x="1.4929862"
           y="1052.9457"
           id="tspan3885"
           style="font-size:6.27863121px">CYh+8jTZjDn0vVeXkg7o2MThMPiRsmR+TwNyN51R4qbMxbam+omDV6i4IDGXeGk9</tspan></text>
      <path
         style="font-size:9.41794682px;font-style:normal;font-variant:normal;font-weight:normal;font-stretch:normal;line-height:125%;letter-spacing:0px;word-spacing:0px;opacity:0.98545454;fill:#23a86d;fill-opacity:1;stroke:none;font-family:TeX Gyre Adventor;-inkscape-font-specification:TeX Gyre Adventor"
         d="M 98,6.625 C 96.945107,6.725288 95.884883,6.8591854 94.84375,7 l 0,5.625 3.15625,0 0,-0.5625 -2.59375,0 0,-2.28125 2.5,0 0,-0.5625 -2.5,0 0,-2.1875 2.59375,0 0,-0.40625 z m -4.9375,0.65625 c -0.250178,0.039673 -0.500697,0.051761 -0.75,0.09375 0.248134,0.1894224 0.470428,0.4267624 0.625,0.71875 l 0.65625,0 C 93.482173,7.7866279 93.281394,7.5199452 93.0625,7.28125 z M 88.78125,8.0625 c -0.238668,0.051499 -0.480987,0.1026205 -0.71875,0.15625 -0.170009,0.3995511 -0.28125,0.8394168 -0.28125,1.3125 0,1.805126 1.39183,3.21875 3.15625,3.21875 1.694156,0 2.914121,-1.414336 3,-2.96875 l -3.9375,0 0,0.5625 3.25,0 c -0.210794,0.977776 -1.203903,1.84375 -2.34375,1.84375 -1.413098,0 -2.53125,-1.154157 -2.53125,-2.625 0,-0.5578339 0.137817,-1.0808406 0.40625,-1.5 z m -2.6875,0.625 C 85.894404,8.737924 85.698662,8.7918263 85.5,8.84375 L 85.96875,10 l -2.25,0 0.3125,-0.75 c -0.229549,0.064827 -0.458918,0.1206693 -0.6875,0.1875 l -1.28125,3.1875 0.59375,0 0.84375,-2.0625 2.6875,0 0.84375,2.0625 0.625,0 -1.5625,-3.9375 z M 81.5625,10 c -0.197556,0.06297 -0.396966,0.12303 -0.59375,0.1875 0.175323,0.192511 0.25,0.429457 0.25,0.75 0,0.71035 -0.500448,1.25 -1.15625,1.25 -0.647995,0 -1.101621,-0.453901 -1.1875,-1.28125 -0.0092,0.0033 -0.02203,-0.0033 -0.03125,0 -0.188932,0.06804 -0.374337,0.149317 -0.5625,0.21875 0.13181,0.987166 0.81267,1.625 1.78125,1.625 0.999318,0 1.71875,-0.79076 1.71875,-1.84375 0,-0.339506 -0.06741,-0.645091 -0.21875,-0.90625 z m 17.09375,0.15625 0,0.53125 2.125,0 0,-0.53125 -2.125,0 z m 2.59375,0 0,0.53125 2.125,0 0,-0.53125 -2.125,0 z m 2.59375,0 0,0.53125 2.125,0 0,-0.53125 -2.125,0 z m 2.59375,0 0,0.53125 2.125,0 0,-0.53125 -2.125,0 z m 2.59375,0 0,0.53125 2.125,0 0,-0.53125 -2.125,0 z M 77.875,11.25 c -0.218345,0.08194 -0.438965,0.166192 -0.65625,0.25 -0.180212,0.407241 -0.564621,0.6875 -1.03125,0.6875 -0.151614,0 -0.308146,-0.046 -0.4375,-0.09375 -0.0089,0.0036 -0.0224,-0.0036 -0.03125,0 -0.210782,0.08644 -0.415277,0.193048 -0.625,0.28125 0.292886,0.220824 0.636775,0.375 1.0625,0.375 0.884741,0 1.573808,-0.629566 1.71875,-1.5 z m -15.78125,16 c -1.717577,0 -3.0625,1.399089 -3.0625,3.1875 0,1.805126 1.39183,3.1875 3.15625,3.1875 1.694156,0 2.914121,-1.383086 3,-2.9375 l -3.90625,0 0,0.5625 3.21875,0 c -0.210794,0.977776 -1.203903,1.8125 -2.34375,1.8125 -1.413098,0 -2.53125,-1.154157 -2.53125,-2.625 0,-1.487557 1.110345,-2.625 2.53125,-2.625 0.890017,0 1.633084,0.435364 2.03125,1.1875 l 0.65625,0 c -0.382551,-1.05299 -1.493046,-1.75 -2.75,-1.75 z m 12.03125,0 c -1.108618,0 -1.8125,0.781691 -1.8125,2.09375 l 0.5625,0 c 0,-1.011205 0.492705,-1.53125 1.25,-1.53125 0.726067,0 1.25,0.537471 1.25,1.28125 0,0.685279 -0.469176,1.146113 -1.09375,1.78125 l -2.03125,2.09375 0,0.5625 3.65625,0 0,-0.5625 -2.875,0 1.84375,-1.90625 c 0.811946,-0.827349 1.0625,-1.277292 1.0625,-1.9375 0,-1.086418 -0.758532,-1.875 -1.8125,-1.875 z m 6.53125,0 c -1.178883,0 -1.9375,0.735193 -1.9375,2.28125 l 0,1.75 c 0,1.637984 0.758639,2.34375 1.96875,2.34375 1.178883,0 1.90625,-0.672337 1.90625,-2.34375 l 0,-1.75 c 0,-1.579485 -0.80546,-2.28125 -1.9375,-2.28125 z m 6.46875,0 c -1.108618,0 -1.84375,0.781691 -1.84375,2.09375 l 0.59375,0 c 0,-1.011205 0.492705,-1.53125 1.25,-1.53125 0.726067,0 1.25,0.537471 1.25,1.28125 0,0.685279 -0.469176,1.146113 -1.09375,1.78125 l -2.03125,2.09375 0,0.5625 3.65625,0 0,-0.5625 -2.875,0 1.84375,-1.90625 c 0.811946,-0.827349 1.0625,-1.277292 1.0625,-1.9375 0,-1.086418 -0.758532,-1.875 -1.8125,-1.875 z m 4.3125,0 c -1.108618,0 -1.8125,0.781691 -1.8125,2.09375 l 0.5625,0 c 0,-1.011205 0.492705,-1.53125 1.25,-1.53125 0.726067,0 1.25,0.537471 1.25,1.28125 0,0.685279 -0.469176,1.146113 -1.09375,1.78125 l -2.03125,2.09375 0,0.5625 3.6875,0 0,-0.5625 -2.90625,0 1.875,-1.90625 c 0.811946,-0.827349 1.0625,-1.277292 1.0625,-1.9375 0,-1.086418 -0.789782,-1.875 -1.84375,-1.875 z m 10.65625,0 c -1.71758,0 -3.0625,1.399089 -3.0625,3.1875 0,1.805126 1.39183,3.1875 3.15625,3.1875 1.69416,0 2.91412,-1.383086 3,-2.9375 l -3.9375,0 0,0.5625 3.25,0 c -0.21079,0.977776 -1.2039,1.8125 -2.34375,1.8125 -1.4131,0 -2.53125,-1.154157 -2.53125,-2.625 0,-1.487557 1.11035,-2.625 2.53125,-2.625 0.89002,0 1.63308,0.435364 2.03125,1.1875 l 0.65625,0 c -0.38255,-1.05299 -1.49305,-1.75 -2.75,-1.75 z m -47.4375,0.09375 0,6.1875 0.59375,0 0,-2.5 1.09375,0 c 1.569241,0 2.15625,-0.642511 2.15625,-1.8125 0,-1.295345 -0.665145,-1.875 -2.25,-1.875 l -1.59375,0 z m 43.78125,0 C 97.094667,27.836817 96.25,29.4583 96.25,30.9375 c 0,1.5377 0.938353,3.131933 2.1875,3.625 l 0,-0.53125 c -1.061775,-0.701993 -1.59375,-1.923761 -1.59375,-3.09375 0,-1.111489 0.547589,-2.385578 1.59375,-3.0625 l 0,-0.53125 z m 7.65625,0 0,6.1875 0.5625,0 0,-5.4375 3.4375,5.4375 0.59375,0 0,-6.1875 -0.59375,0 0,5.125 -3.21875,-5.125 -0.78125,0 z m 5.78125,0 0,3.84375 c 0,1.67977 0.80548,2.4375 1.96875,2.4375 1.17108,0 1.9375,-0.75773 1.9375,-2.4375 l 0,-3.84375 -0.5625,0 0,3.84375 c 0,1.261916 -0.48498,1.875 -1.375,1.875 -0.90563,0 -1.40625,-0.613084 -1.40625,-1.875 l 0,-3.84375 -0.5625,0 z m 7.0625,0 -2.25,7.25 0.53125,0 2.25,-7.25 -0.53125,0 z m 1.46875,0 0,6.1875 2.9375,0 0,-0.5625 -2.375,0 0,-5.625 -0.5625,0 z m 18.09375,0 0,0.5625 c 1.05397,0.676922 1.5625,1.909225 1.5625,3.0625 0,1.094775 -0.50072,2.402292 -1.5625,3.0625 l 0,0.53125 c 1.34283,-0.493067 2.15625,-2.122907 2.15625,-3.59375 0,-1.529342 -0.91491,-3.148647 -2.15625,-3.625 z m -14.59375,0.0625 0,1.03125 0.5625,0 0,-1.03125 -0.5625,0 z m -43.5625,0.40625 c 0.09606,-0.01595 0.205151,0 0.3125,0 1.053968,0 1.375,0.740618 1.375,1.84375 l 0,1.53125 c 0,1.370558 -0.430311,1.875 -1.34375,1.875 -0.835367,0 -1.40625,-0.429228 -1.40625,-1.875 l 0,-1.53125 c 0,-1.206551 0.390046,-1.732121 1.0625,-1.84375 z M 55.25,27.90625 l 0.8125,0 c 1.100811,0 1.84375,0.05894 1.84375,1.3125 0,0.894206 -0.446096,1.25 -1.59375,1.25 l -1.0625,0 0,-2.5625 z m 72.15625,0.9375 c -0.56212,0 -1.01587,0.250754 -1.375,0.71875 l 0,-0.59375 -0.5625,0 0,4.5625 0.5625,0 0,-2.53125 c 0,-1.119846 0.53959,-1.59375 1.3125,-1.59375 0.78852,0 1.3125,0.473548 1.3125,1.71875 l 0,2.40625 0.59375,0 0,-2.40625 c 0,-1.604556 -0.77417,-2.28125 -1.84375,-2.28125 z M 53,28.96875 53,31.3125 c 0,1.245202 -0.531783,1.75 -1.3125,1.75 -0.82756,0 -1.28125,-0.494618 -1.28125,-1.65625 l 0,-2.125 c -0.198222,0.207857 -0.398289,0.414898 -0.59375,0.625 l 0,1.5 c 0,1.596199 0.727303,2.21875 1.8125,2.21875 0.663609,0 1.086135,-0.24422 1.375,-0.8125 l 0,0.71875 0.59375,0 0,-4.5625 -0.59375,0 z m 14.71875,0 1.8125,4.5625 0.59375,0 1.8125,-4.5625 -0.59375,0 -1.53125,3.84375 -1.5,-3.84375 -0.59375,0 z m 56.1875,0 0,4.5625 0.5625,0 0,-4.5625 -0.5625,0 z m 6.3125,0 0,2.4375 c 0,1.596199 0.7273,2.21875 1.8125,2.21875 0.66361,0 1.08613,-0.24422 1.375,-0.8125 l 0,0.71875 0.5625,0 0,-4.5625 -0.5625,0 0,2.34375 c 0,1.245202 -0.56303,1.75 -1.34375,1.75 -0.82756,0 -1.28125,-0.494618 -1.28125,-1.65625 l 0,-2.4375 -0.5625,0 z m 4.3125,0 1.46875,2.21875 -1.46875,2.34375 0.65625,0 1.15625,-1.84375 1.15625,1.84375 0.65625,0 -1.5,-2.34375 1.5,-2.21875 -0.65625,0 -1.15625,1.75 -1.15625,-1.75 -0.65625,0 z m -85.6875,1.96875 c -0.197299,0.220937 -0.368224,0.464233 -0.5625,0.6875 l 0,1.90625 0.5625,0 0,-2.40625 c 0,-0.06665 0.0026,-0.124032 0,-0.1875 z m 28.28125,1.53125 0,1.0625 0.5625,0 0,-1.0625 -0.5625,0 z m 6.5,0 0,1.0625 0.5625,0 0,-1.0625 -0.5625,0 z M 62.09375,48.125 c -0.929053,0 -1.59375,0.695188 -1.59375,1.65625 0,0.42621 0.148613,0.865931 0.40625,1.125 0.226408,0.233998 0.391083,0.313966 1.0625,0.53125 0.991511,0.325925 1.28125,0.604328 1.28125,1.28125 0,0.71035 -0.469198,1.25 -1.125,1.25 -0.647995,0 -1.132871,-0.453901 -1.21875,-1.28125 l -0.59375,0 c 0.05465,1.111489 0.742896,1.84375 1.78125,1.84375 0.999318,0 1.75,-0.79076 1.75,-1.84375 0,-0.543209 -0.195563,-1.020003 -0.5625,-1.3125 -0.234215,-0.183855 -0.500405,-0.307788 -1.09375,-0.5 -0.52308,-0.167141 -0.695414,-0.23293 -0.84375,-0.375 -0.163951,-0.150427 -0.28125,-0.43461 -0.28125,-0.71875 0,-0.618423 0.422269,-1.09375 1,-1.09375 0.585538,0 1.03125,0.456435 1.03125,1.125 l 0.625,0 c 0,-1.002848 -0.680333,-1.6875 -1.625,-1.6875 z m 8.84375,0 c -0.874403,0 -1.53125,0.68283 -1.53125,1.59375 0,0.551566 0.18782,0.949146 0.65625,1.25 -0.632381,0.325925 -0.96875,0.912471 -0.96875,1.65625 0,1.086418 0.781975,1.90625 1.84375,1.90625 1.053968,0 1.8125,-0.817654 1.8125,-1.9375 0,-0.760493 -0.328562,-1.324146 -0.96875,-1.625 0.46843,-0.233998 0.6875,-0.639934 0.6875,-1.25 0,-0.927634 -0.64904,-1.59375 -1.53125,-1.59375 z m 23.8125,0 c -1.780035,0 -3.125,1.388553 -3.125,3.21875 0,1.771697 1.360558,3.1875 3.09375,3.1875 0.632381,0 1.265955,-0.180253 1.75,-0.53125 0.398166,0.392782 0.711305,0.522893 1.25,0.53125 l 0,-0.59375 c -0.04684,0.0084 -0.132828,0.03125 -0.15625,0.03125 -0.242022,0 -0.422078,-0.08686 -0.71875,-0.3125 0.624574,-0.56828 0.96875,-1.399402 0.96875,-2.34375 0,-1.830197 -1.29808,-3.1875 -3.0625,-3.1875 z m 31.90625,0 c -1.71758,0 -3,1.371839 -3,3.21875 0,1.805126 1.30587,3.1875 3.03125,3.1875 1.17108,0 2.07852,-0.573832 2.65625,-1.71875 l -0.65625,0 c -0.60896,0.818992 -1.15683,1.15625 -2,1.15625 -1.33503,0 -2.4375,-1.210478 -2.4375,-2.65625 0,-1.487557 1.06344,-2.625 2.4375,-2.625 0.81195,0 1.4769,0.328901 1.96875,1.15625 l 0.65625,0 C 128.86749,48.782403 127.85075,48.125 126.65625,48.125 z m 20.5625,0 c -1.78003,0 -3.125,1.388553 -3.125,3.21875 0,1.771697 1.39181,3.1875 3.125,3.1875 0.63238,0 1.23471,-0.180253 1.71875,-0.53125 0.39817,0.392782 0.74256,0.522893 1.28125,0.53125 l 0,-0.59375 c -0.0468,0.0084 -0.13283,0.03125 -0.15625,0.03125 -0.24202,0 -0.42208,-0.08686 -0.71875,-0.3125 0.62457,-0.56828 0.96875,-1.399402 0.96875,-2.34375 0,-1.830197 -1.32933,-3.1875 -3.09375,-3.1875 z M 37.65625,48.25 c -0.418407,0.945979 -0.815347,1.908176 -1.1875,2.875 0.240282,-0.221744 0.530021,-0.34375 0.875,-0.34375 0.804138,0 1.40625,0.674473 1.40625,1.59375 0,0.927634 -0.586476,1.59375 -1.375,1.59375 -0.775342,0 -1.355249,-0.628635 -1.40625,-1.5 -0.112463,0.313251 -0.236196,0.622234 -0.34375,0.9375 0.327917,0.670763 0.966355,1.125 1.75,1.125 1.124232,0 1.9375,-0.925584 1.9375,-2.1875 0,-1.186703 -0.821011,-2.125 -1.84375,-2.125 -0.242022,0 -0.398613,0.03089 -0.65625,0.15625 l 1.34375,-2.125 -0.5,0 z m 13.9375,0 0,6.15625 0.59375,0 0,-2.875 3,0 0,2.875 0.5625,0 0,-6.15625 -0.5625,0 0,2.71875 -3,0 0,-2.71875 -0.59375,0 z m 5.34375,0 0,6.15625 0.59375,0 0,-2.8125 2.25,0 0,-0.5625 -2.25,0 0,-2.21875 2.34375,0 0,-0.5625 -2.9375,0 z m 7.6875,0 0,6.15625 0.5625,0 0,-5.59375 0.8125,0 c 1.342833,0 1.9375,0.378331 1.9375,1.40625 0,1.111489 -0.540166,1.40625 -2.15625,1.40625 l 1.9375,2.78125 0.71875,0 -1.625,-2.28125 c 1.108618,-0.125356 1.71875,-0.811475 1.71875,-1.90625 0,-1.286988 -0.688737,-1.96875 -2.5,-1.96875 l -1.40625,0 z m 14.09375,0 -1.40625,2.25 c -0.554309,0.877492 -0.6875,1.273291 -0.6875,1.875 0,1.228488 0.828903,2.15625 1.96875,2.15625 1.124232,0 1.96875,-0.925584 1.96875,-2.1875 0,-1.186703 -0.821011,-2.125 -1.84375,-2.125 -0.242022,0 -0.429863,0.03089 -0.6875,0.15625 l 1.375,-2.125 -0.6875,0 z m 9.625,0 -2.46875,6.15625 0.625,0 0.84375,-2.0625 2.6875,0 0.8125,2.0625 0.65625,0 L 89,48.25 l -0.65625,0 z m 12.15625,0 c -1.100811,0 -1.671864,0.532403 -1.65625,1.59375 l -0.65625,0 0,0.5625 0.65625,0 0,4 0.59375,0 0,-4 1.0625,0 0,-0.5625 -1.0625,0 C 99.4297,49.083257 99.711476,48.8125 100.5,48.8125 l 0,-0.5625 z m 2.5625,0 -2.21875,7.25 0.53125,0 2.25,-7.25 -0.5625,0 z m 5.15625,0 0,2.3125 c -0.42159,-0.543209 -1.01608,-0.8125 -1.6875,-0.8125 -1.28818,0 -2.25,1.012799 -2.25,2.375 0,1.353844 0.99309,2.40625 2.3125,2.40625 0.71045,0 1.19561,-0.277292 1.625,-0.9375 l 0,0.8125 0.5625,0 0,-6.15625 -0.5625,0 z m 22.5,0 -0.53125,3.03125 0.4375,0.1875 c 0.35132,-0.467996 0.73468,-0.6875 1.1875,-0.6875 0.78072,0 1.40625,0.691187 1.40625,1.59375 0,0.902563 -0.63334,1.59375 -1.40625,1.59375 -0.72607,0 -1.27351,-0.622508 -1.375,-1.5 l -0.5625,0 c 0.17176,1.286988 0.92259,2.0625 1.96875,2.0625 1.0852,0 1.9375,-0.944476 1.9375,-2.15625 0,-1.203417 -0.82886,-2.15625 -1.90625,-2.15625 -0.34352,0 -0.64868,0.07232 -1,0.28125 l 0.28125,-1.6875 2.15625,0 0,-0.5625 -2.59375,0 z m 9.21875,0 0,6.15625 0.5625,0 0,-6.15625 -0.5625,0 z m 2.1875,0 0,1.59375 -0.9375,0 0,0.5625 0.9375,0 0,4 0.5625,0 0,-4 0.96875,0 0,-0.5625 -0.96875,0 0,-1.59375 -0.5625,0 z m 9.03125,0 0,6.15625 0.5625,0 0,-6.15625 -0.5625,0 z m 1.34375,0 1.84375,3 -1.96875,3.15625 0.6875,0 1.65625,-2.625 1.625,2.625 0.6875,0 -1.96875,-3.15625 1.84375,-3 -0.6875,0 -1.5,2.46875 -1.53125,-2.46875 -0.6875,0 z m 10.5,0 0,6.15625 0.5625,0 0,-2.875 3,0 0,2.875 0.59375,0 0,-6.15625 -0.59375,0 0,2.71875 -3,0 0,-2.71875 -0.5625,0 z m 7.0625,0 -1.4375,2.25 c -0.55431,0.877492 -0.6875,1.273291 -0.6875,1.875 0,1.228488 0.86015,2.15625 2,2.15625 1.12423,0 1.9375,-0.925584 1.9375,-2.1875 0,-1.186703 -0.82101,-2.125 -1.84375,-2.125 -0.24202,0 -0.42986,0.03089 -0.6875,0.15625 l 1.375,-2.125 -0.65625,0 z m -99.125,0.4375 c 0.554309,0 0.9375,0.415006 0.9375,1 0,0.576637 -0.38317,1.03125 -0.90625,1.03125 -0.569923,0 -1,-0.437899 -1,-1.03125 0,-0.576637 0.414441,-1 0.96875,-1 z m 23.78125,0 c 1.420905,0 2.5,1.1458 2.5,2.625 0,0.727064 -0.250362,1.363041 -0.78125,1.90625 -0.960282,-0.902563 -1.750789,-1.34375 -2.90625,-1.34375 -0.445009,0 -0.804991,0.05997 -1.25,0.21875 -0.06246,-0.300854 -0.09375,-0.493109 -0.09375,-0.71875 0,-1.520985 1.102538,-2.6875 2.53125,-2.6875 z m 52.5,0 c 1.4209,0 2.5,1.1458 2.5,2.625 0,0.727064 -0.25036,1.363041 -0.78125,1.90625 C 147.97722,52.316187 147.15546,51.875 146,51.875 c -0.44501,0 -0.77374,0.05997 -1.21875,0.21875 -0.0625,-0.300854 -0.0937,-0.493109 -0.0937,-0.71875 0,-1.520985 1.10254,-2.6875 2.53125,-2.6875 z m -58.53125,0.25 1.09375,2.84375 -2.21875,0 1.125,-2.84375 z m -39.84375,0.78125 c -0.663609,0 -1.10962,0.296184 -1.46875,0.90625 -0.335708,-0.610066 -0.766062,-0.875 -1.40625,-0.875 -0.538695,0 -0.890849,0.165362 -1.21875,0.625 l 0,-0.53125 -0.5625,0 0,4.5625 0.5625,0 0,-2.65625 c 0,-0.91092 0.43799,-1.4375 1.15625,-1.4375 0.655802,0 1.15625,0.417938 1.15625,1.4375 l 0,2.65625 0.59375,0 0,-2.625 c 0,-1.036276 0.477026,-1.46875 1.15625,-1.46875 0.702645,0 1.125,0.440831 1.125,1.46875 l 0,2.625 0.59375,0 0,-2.71875 c 0,-1.328773 -0.711604,-1.96875 -1.6875,-1.96875 z M 83.375,49.75 c -1.280376,0 -2.3125,1.046227 -2.3125,2.375 0,1.362201 1.032146,2.40625 2.34375,2.40625 0.88221,0 1.578477,-0.424117 2.09375,-1.46875 l -0.65625,0 c -0.445009,0.635137 -0.867598,0.90625 -1.46875,0.90625 -0.960282,0 -1.71875,-0.832545 -1.71875,-1.84375 0,-1.027919 0.735025,-1.8125 1.6875,-1.8125 0.632381,0 1.172099,0.304541 1.5,0.90625 l 0.65625,0 C 85.156485,50.299473 84.335282,49.75 83.375,49.75 z m 32.46875,0 c -1.24915,0 -2.1875,1.027335 -2.1875,2.40625 0,1.33713 0.9696,2.375 2.21875,2.375 0.7651,0 1.28929,-0.329257 1.625,-1.03125 l 0,0.3125 c 0,1.203417 -0.53195,1.84375 -1.5625,1.84375 -0.71826,0 -1.1253,-0.266401 -1.5625,-1.09375 l -0.5625,0 c 0.31229,1.069704 1.04761,1.65625 2.125,1.65625 0.74168,0 1.38306,-0.294362 1.75,-0.8125 0.28887,-0.417853 0.40625,-0.918294 0.40625,-1.8125 l 0,-3.75 -0.59375,0 0,0.8125 C 117.07061,50.02947 116.56201,49.75 115.84375,49.75 z m 20.71875,0 c -1.28038,0 -2.25,1.035692 -2.25,2.40625 0,1.362201 1.0009,2.375 2.3125,2.375 0.72607,0 1.17218,-0.254399 1.625,-0.90625 l 0,0.78125 0.59375,0 0,-4.5625 -0.59375,0 0,0.8125 C 137.82841,50.021113 137.30418,49.75 136.5625,49.75 z m 23.28125,0 c -0.72607,0 -1.32837,0.298363 -1.6875,0.875 l 0,-0.78125 -0.59375,0 0,6.1875 0.59375,0 0,-2.40625 c 0.37474,0.584994 0.9458,0.90625 1.65625,0.90625 1.27257,0 2.25,-1.03787 2.25,-2.375 0,-1.362201 -0.94618,-2.40625 -2.21875,-2.40625 z m 14.34375,0.03125 c -1.05127,0.216974 -1.78125,1.151824 -1.78125,2.34375 0,1.353844 0.99309,2.40625 2.3125,2.40625 0.48221,0 0.86019,-0.149435 1.1875,-0.4375 -0.0585,-0.178105 -0.12745,-0.35377 -0.1875,-0.53125 -0.28303,0.247277 -0.61464,0.40625 -1,0.40625 -0.9759,0 -1.75,-0.799117 -1.75,-1.84375 0,-0.957637 0.69254,-1.744592 1.5625,-1.8125 -0.0711,-0.177467 -0.14604,-0.354489 -0.21875,-0.53125 -0.0407,0.0061 -0.0851,-0.0082 -0.125,0 z m -134.59375,0.0625 1.65625,4.4375 -0.71875,1.75 0.625,0 2.46875,-6.1875 -0.625,0 -1.4375,3.65625 -1.34375,-3.65625 -0.625,0 z m 33.65625,0 0,0.5625 2.28125,0 -2.375,3.4375 0,0.5625 3.1875,0 0,-0.5625 -2.5,0 2.34375,-3.46875 0,-0.53125 -2.9375,0 z m 36.125,0 1.65625,4.4375 -0.71875,1.75 0.625,0 2.46875,-6.1875 -0.625,0 L 111.34375,53.5 110,49.84375 l -0.625,0 z m 9.6875,0 0,2.46875 c 0,1.596199 0.7273,2.21875 1.8125,2.21875 0.66361,0 1.08613,-0.24422 1.375,-0.8125 l 0,0.6875 0.59375,0 0,-4.5625 -0.59375,0 0,2.34375 c 0,1.245202 -0.53178,1.78125 -1.3125,1.78125 -0.82756,0 -1.28125,-0.494618 -1.28125,-1.65625 l 0,-2.46875 -0.59375,0 z m -12.53125,0.46875 c 0.94467,0 1.71875,0.809652 1.71875,1.8125 0,1.002848 -0.74281,1.84375 -1.65625,1.84375 -0.9759,0 -1.75,-0.799117 -1.75,-1.84375 0,-1.002848 0.75845,-1.8125 1.6875,-1.8125 z m 9.34375,0 c 0.92125,0 1.625,0.78676 1.625,1.78125 0,1.069704 -0.69595,1.875 -1.625,1.875 -0.93686,0 -1.65625,-0.813653 -1.65625,-1.875 0,-1.044633 0.71158,-1.78125 1.65625,-1.78125 z m 20.71875,0 c 0.93686,0 1.65625,0.792938 1.65625,1.8125 0,1.036276 -0.70375,1.84375 -1.625,1.84375 -0.96809,0 -1.71875,-0.830367 -1.71875,-1.875 0,-0.99449 0.75845,-1.78125 1.6875,-1.78125 z m 23.21875,0 c 0.96028,0 1.6875,0.79076 1.6875,1.84375 0,1.027919 -0.73503,1.8125 -1.6875,1.8125 -0.9759,0 -1.6875,-0.79076 -1.6875,-1.84375 0,-1.011205 0.74283,-1.8125 1.6875,-1.8125 z m -81.21875,0.46875 c 0.804138,0 1.375,0.674473 1.375,1.59375 0,0.927634 -0.586476,1.59375 -1.375,1.59375 -0.811946,0 -1.40625,-0.689009 -1.40625,-1.625 0,-0.885849 0.617726,-1.5625 1.40625,-1.5625 z m 91.3125,0 c 0.80414,0 1.375,0.674473 1.375,1.59375 0,0.927634 -0.55523,1.59375 -1.34375,1.59375 -0.81195,0 -1.4375,-0.689009 -1.4375,-1.625 0,-0.885849 0.61773,-1.5625 1.40625,-1.5625 z m -98.96875,0.5 c 0.726067,0 1.25,0.566543 1.25,1.34375 0,0.785564 -0.523933,1.34375 -1.25,1.34375 -0.749488,0 -1.28125,-0.549829 -1.28125,-1.34375 0,-0.777207 0.539569,-1.34375 1.28125,-1.34375 z m 22.5,1.15625 c 0.983703,0 1.727133,0.345615 2.5625,1.15625 -0.390358,0.259069 -0.797205,0.375 -1.28125,0.375 -0.952475,0 -1.820563,-0.608328 -2.1875,-1.34375 0.312287,-0.133713 0.54712,-0.1875 0.90625,-0.1875 z m 52.46875,0 c 0.9837,0 1.72713,0.345615 2.5625,1.15625 -0.39036,0.259069 -0.76596,0.375 -1.25,0.375 -0.95247,0 -1.85181,-0.608328 -2.21875,-1.34375 0.31229,-0.133713 0.54712,-0.1875 0.90625,-0.1875 z M 41.4375,58.59375 c -1.780035,0 -3.125,1.357303 -3.125,3.1875 0,1.771697 1.391808,3.1875 3.125,3.1875 0.632381,0 1.234705,-0.180253 1.71875,-0.53125 0.398166,0.392782 0.742555,0.522893 1.28125,0.53125 l 0,-0.5625 c -0.04684,0.0084 -0.132828,0 -0.15625,0 -0.242022,0 -0.422078,-0.08686 -0.71875,-0.3125 0.624574,-0.56828 0.96875,-1.399402 0.96875,-2.34375 0,-1.830197 -1.32933,-3.15625 -3.09375,-3.15625 z m 36.84375,0 c -1.65512,0 -3.03125,1.443052 -3.03125,3.15625 0,1.796768 1.337094,3.21875 3.03125,3.21875 1.670734,0 3.0625,-1.440874 3.0625,-3.1875 0,-1.76334 -1.391766,-3.1875 -3.0625,-3.1875 z m 69,0 c -1.12423,0 -1.9375,0.925584 -1.9375,2.1875 0,1.186703 0.78976,2.125 1.8125,2.125 0.24202,0 0.42986,-0.06214 0.6875,-0.1875 L 146.5,64.875 l 0.65625,0 1.4375,-2.28125 c 0.5465,-0.869135 0.6875,-1.264934 0.6875,-1.875 0,-1.228488 -0.86015,-2.125 -2,-2.125 z m 9.59375,0 c -1.10862,0 -1.84375,0.781691 -1.84375,2.09375 l 0.5625,0 c 0,-1.011205 0.4927,-1.5625 1.25,-1.5625 0.72607,0 1.25,0.568721 1.25,1.3125 0,0.685279 -0.46918,1.146113 -1.09375,1.78125 l -2,2.09375 0,0.5625 3.65625,0 0,-0.5625 -2.875,0 1.84375,-1.90625 c 0.81195,-0.827349 1.0625,-1.277292 1.0625,-1.9375 0,-1.086418 -0.75853,-1.875 -1.8125,-1.875 z m -122.1875,0.09375 -0.53125,3.03125 0.46875,0.1875 c 0.351323,-0.467996 0.734684,-0.6875 1.1875,-0.6875 0.780717,0 1.375,0.691187 1.375,1.59375 0,0.902563 -0.60209,1.59375 -1.375,1.59375 -0.726067,0 -1.304757,-0.591258 -1.40625,-1.46875 l -0.5625,0 c 0.171758,1.286988 0.953839,2.03125 2,2.03125 1.085197,0 1.9375,-0.944476 1.9375,-2.15625 0,-1.203417 -0.860111,-2.15625 -1.9375,-2.15625 -0.343515,0 -0.617427,0.103573 -0.96875,0.3125 l 0.28125,-1.71875 2.125,0 0,-0.5625 -2.59375,0 z m 10.15625,0 2.375,6.1875 0.5625,0 2.40625,-6.1875 -0.625,0 -2.03125,5.40625 L 45.5,58.6875 l -0.65625,0 z m 6,0 0,3.84375 c 0,1.67977 0.805482,2.4375 1.96875,2.4375 1.171075,0 1.96875,-0.75773 1.96875,-2.4375 l 0,-3.84375 -0.59375,0 0,3.84375 c 0,1.261916 -0.484983,1.875 -1.375,1.875 -0.905632,0 -1.375,-0.613084 -1.375,-1.875 l 0,-3.84375 -0.59375,0 z m 7.0625,0 -2.25,7.25 0.53125,0 2.28125,-7.25 -0.5625,0 z m 13.25,0 0,6.1875 0.59375,0 0,-1.6875 0.75,-1 1.90625,2.6875 0.75,0 -2.28125,-3.1875 2.28125,-3 -0.75,0 -2.65625,3.5625 0,-3.5625 -0.59375,0 z m 11.125,0 0,6.1875 0.5625,0 0,-6.1875 -0.5625,0 z m 3.46875,0 -1.40625,2.28125 c -0.554309,0.877492 -0.6875,1.242041 -0.6875,1.84375 0,1.228488 0.828903,2.15625 1.96875,2.15625 1.124232,0 1.9375,-0.925584 1.9375,-2.1875 0,-1.186703 -0.789761,-2.125 -1.8125,-2.125 -0.242022,0 -0.429863,0.06214 -0.6875,0.1875 l 1.34375,-2.15625 -0.65625,0 z m 7.9375,0 0,3.84375 c 0,1.67977 0.805482,2.4375 1.96875,2.4375 1.171075,0 1.96875,-0.75773 1.96875,-2.4375 l 0,-3.84375 -0.59375,0 0,3.84375 c 0,1.261916 -0.484983,1.875 -1.375,1.875 -0.905632,0 -1.375,-0.613084 -1.375,-1.875 l 0,-3.84375 -0.59375,0 z m 4.59375,0 2.375,6.1875 0.5625,0 2.40625,-6.1875 -0.625,0 -2.0625,5.40625 -2.03125,-5.40625 -0.625,0 z m 12.71875,0 -2.25,7.25 0.53125,0 2.25,-7.25 -0.53125,0 z m 6.6875,0 0,2.34375 C 117.26591,60.488041 116.67142,60.1875 116,60.1875 c -1.28818,0 -2.25,1.044049 -2.25,2.40625 0,1.353844 0.99309,2.375 2.3125,2.375 0.71045,0 1.19561,-0.277292 1.625,-0.9375 l 0,0.84375 0.59375,0 0,-6.1875 -0.59375,0 z m 4.46875,0 0,0.5625 1.3125,0 0,5.625 0.5625,0 0,-5.625 1.3125,0 0,-0.5625 -3.1875,0 z m 3.84375,0 0,6.1875 0.59375,0 0,-2.5 1.09375,0 c 1.56924,0 2.125,-0.642511 2.125,-1.8125 0,-1.295345 -0.63389,-1.875 -2.21875,-1.875 l -1.59375,0 z m 6.125,0 -2.46875,6.1875 0.59375,0 0.84375,-2.09375 2.6875,0 0.84375,2.09375 0.625,0 -2.46875,-6.1875 -0.65625,0 z m 6.125,0 -2.8125,4.5 0,0.5625 2.90625,0 0,1.125 0.5625,0 0,-1.125 0.53125,0 0,-0.5625 -0.53125,0 0,-4.5 -0.65625,0 z m 1.5,0 2.375,6.1875 0.5625,0 2.375,-6.1875 -0.625,0 -2.03125,5.40625 -2.03125,-5.40625 -0.625,0 z m 19.8125,0 0,6.1875 0.5625,0 0,-0.78125 c 0.35913,0.56828 0.98485,0.875 1.6875,0.875 1.28818,0 2.25,-1.035692 2.25,-2.40625 0,-1.345487 -0.98524,-2.375 -2.25,-2.375 -0.71826,0 -1.32056,0.329613 -1.6875,0.90625 l 0,-2.40625 -0.5625,0 z m 7.375,0 -2.25,7.25 0.53125,0 2.28125,-7.25 -0.5625,0 z m 7.53125,0 2.375,6.1875 0.5625,0 L 178.125,63 c -0.0573,-0.334875 -0.12486,-0.666784 -0.1875,-1 l -0.78125,2.09375 -2.03125,-5.40625 -0.65625,0 z m -62.125,0.0625 0,1.03125 0.59375,0 0,-1.03125 -0.59375,0 z m 55.9375,0 0,1.03125 0.59375,0 0,-1.03125 -0.59375,0 z m -21,0.375 c 0.81195,0 1.40625,0.689009 1.40625,1.625 0,0.885849 -0.61773,1.59375 -1.40625,1.59375 -0.80414,0 -1.375,-0.674473 -1.375,-1.59375 0,-0.935991 0.58648,-1.625 1.375,-1.625 z M 41.4375,59.15625 c 1.420905,0 2.5,1.11455 2.5,2.59375 0,0.727064 -0.250362,1.394291 -0.78125,1.9375 -0.960282,-0.902563 -1.782039,-1.375 -2.9375,-1.375 -0.445009,0 -0.773741,0.05997 -1.21875,0.21875 -0.06246,-0.300854 -0.09375,-0.461859 -0.09375,-0.6875 0,-1.520985 1.102538,-2.6875 2.53125,-2.6875 z m 36.84375,0 c 1.342833,0 2.46875,1.179228 2.46875,2.625 0,1.429058 -1.125917,2.625 -2.46875,2.625 -1.358447,0 -2.46875,-1.193764 -2.46875,-2.65625 0,-1.412344 1.133724,-2.59375 2.46875,-2.59375 z m 48.3125,0.09375 0.8125,0 c 1.10081,0 1.84375,0.05894 1.84375,1.3125 0,0.894206 -0.4461,1.25 -1.59375,1.25 l -1.0625,0 0,-2.5625 z m 5.84375,0.125 1.125,2.84375 -2.25,0 1.125,-2.84375 z m 5.90625,0.15625 0,3.65625 -2.25,0 2.25,-3.65625 z m -77,0.65625 c -1.272569,0 -2.25,1.052406 -2.25,2.40625 0,1.345487 1.008681,2.375 2.28125,2.375 0.710452,0 1.281506,-0.290006 1.65625,-0.875 l 0,2.375 0.5625,0 0,-6.1875 -0.5625,0 0,0.8125 C 62.67212,60.508756 62.069817,60.1875 61.34375,60.1875 z m 29.1875,0 c -0.726067,0 -1.32837,0.329613 -1.6875,0.90625 l 0,-0.8125 -0.5625,0 0,6.1875 0.5625,0 0,-2.375 c 0.374744,0.584994 0.945798,0.875 1.65625,0.875 1.272569,0 2.28125,-1.03787 2.28125,-2.375 0,-1.362201 -0.977431,-2.40625 -2.25,-2.40625 z m 15.59375,0 c -0.56212,0 -1.01587,0.219504 -1.375,0.6875 l 0,-0.59375 -0.5625,0 0,4.59375 0.5625,0 0,-2.53125 c 0,-1.119846 0.53959,-1.59375 1.3125,-1.59375 0.78852,0 1.3125,0.473548 1.3125,1.71875 l 0,2.40625 0.5625,0 0,-2.40625 c 0,-1.604556 -0.74292,-2.28125 -1.8125,-2.28125 z m 45.875,0 c -1.24915,0 -2.1875,1.027335 -2.1875,2.40625 0,1.33713 0.9696,2.375 2.21875,2.375 0.7651,0 1.28929,-0.329257 1.625,-1.03125 l 0,0.3125 c 0,1.203417 -0.53195,1.84375 -1.5625,1.84375 -0.71826,0 -1.1253,-0.266401 -1.5625,-1.09375 l -0.5625,0 c 0.31229,1.069704 1.04761,1.65625 2.125,1.65625 0.74168,0 1.38306,-0.294362 1.75,-0.8125 0.28887,-0.417853 0.40625,-0.918294 0.40625,-1.8125 l 0,-3.75 -0.59375,0 0,0.8125 C 153.22686,60.46697 152.71826,60.1875 152,60.1875 z m 19.96875,0 c -1.28038,0 -2.28125,1.046227 -2.28125,2.375 0,1.362201 1.0009,2.40625 2.3125,2.40625 0.88221,0 1.57848,-0.392867 2.09375,-1.4375 l -0.65625,0 c -0.44501,0.635137 -0.83635,0.875 -1.4375,0.875 -0.96028,0 -1.71875,-0.801295 -1.71875,-1.8125 0,-1.027919 0.73503,-1.84375 1.6875,-1.84375 0.63238,0 1.14085,0.335791 1.46875,0.9375 l 0.65625,0 c -0.34352,-0.919277 -1.16472,-1.5 -2.125,-1.5 z m -107.8125,0.09375 1.625,4.59375 0.625,0 0.9375,-3.03125 0.90625,3.03125 0.625,0 1.65625,-4.59375 -0.5625,0 -1.40625,3.84375 -1,-3.28125 -0.46875,0 -1,3.28125 -1.375,-3.84375 -0.5625,0 z m 48.1875,0 0,4.59375 0.59375,0 0,-4.59375 -0.59375,0 z m 6.5625,0 0,0.5625 2.28125,0 -2.34375,3.46875 0,0.5625 3.15625,0 0,-0.5625 -2.46875,0 2.3125,-3.5 0,-0.53125 -2.9375,0 z m 49.375,0 0,4.59375 0.59375,0 0,-4.59375 -0.59375,0 z M 61.375,60.75 c 0.968089,0 1.6875,0.782403 1.6875,1.84375 0,1.002848 -0.742833,1.8125 -1.6875,1.8125 -0.960282,0 -1.6875,-0.784581 -1.6875,-1.8125 0,-1.05299 0.727218,-1.84375 1.6875,-1.84375 z m 29.125,0 c 0.960282,0 1.6875,0.79076 1.6875,1.84375 0,1.027919 -0.735025,1.8125 -1.6875,1.8125 -0.975896,0 -1.6875,-0.79076 -1.6875,-1.84375 0,-1.011205 0.742833,-1.8125 1.6875,-1.8125 z m 25.5,0 c 0.94467,0 1.71875,0.809652 1.71875,1.8125 0,1.002848 -0.74281,1.84375 -1.65625,1.84375 -0.9759,0 -1.75,-0.799117 -1.75,-1.84375 0,-1.002848 0.75845,-1.8125 1.6875,-1.8125 z m 36.03125,0 c 0.92125,0 1.625,0.78676 1.625,1.78125 0,1.069704 -0.69595,1.875 -1.625,1.875 -0.93686,0 -1.65625,-0.782403 -1.65625,-1.84375 0,-1.044633 0.71158,-1.8125 1.65625,-1.8125 z m 9.75,0 c 0.96028,0 1.6875,0.784581 1.6875,1.8125 0,1.05299 -0.72722,1.84375 -1.6875,1.84375 -0.93686,0 -1.6875,-0.832545 -1.6875,-1.84375 0,-1.011205 0.73503,-1.8125 1.6875,-1.8125 z M 85.625,61.21875 c 0.804138,0 1.375,0.674473 1.375,1.59375 0,0.927634 -0.586476,1.59375 -1.375,1.59375 -0.811946,0 -1.40625,-0.689009 -1.40625,-1.625 0,-0.885849 0.617726,-1.5625 1.40625,-1.5625 z M 33.28125,62.4375 c -0.115724,0.641067 -0.216715,1.290447 -0.3125,1.9375 0.307948,-0.290095 0.4375,-0.711676 0.4375,-1.28125 0,-0.2561 -0.05313,-0.460468 -0.125,-0.65625 z M 40.125,62.875 c 0.983703,0 1.727133,0.345615 2.5625,1.15625 -0.390358,0.259069 -0.765955,0.375 -1.25,0.375 -0.952475,0 -1.851813,-0.608328 -2.21875,-1.34375 0.312287,-0.133713 0.54712,-0.1875 0.90625,-0.1875 z m -3.96875,6.15625 c -1.717577,0 -3.0625,1.399089 -3.0625,3.1875 0,1.805126 1.36058,3.1875 3.125,3.1875 1.694156,0 2.914121,-1.383086 3,-2.9375 l -3.90625,0 0,0.5625 3.21875,0 c -0.210794,0.977776 -1.172653,1.8125 -2.3125,1.8125 -1.413098,0 -2.53125,-1.154157 -2.53125,-2.625 0,-1.487557 1.079095,-2.625 2.5,-2.625 0.890017,0 1.664334,0.435364 2.0625,1.1875 l 0.625,0 c -0.382551,-1.05299 -1.461796,-1.75 -2.71875,-1.75 z m 28.3125,0 c -0.874403,0 -1.53125,0.68283 -1.53125,1.59375 0,0.551566 0.18782,0.917896 0.65625,1.21875 C 62.961369,72.169675 62.625,72.756221 62.625,73.5 c 0,1.086418 0.781975,1.90625 1.84375,1.90625 1.053968,0 1.8125,-0.786404 1.8125,-1.90625 0,-0.760493 -0.328562,-1.355396 -0.96875,-1.65625 C 65.78093,71.609752 66,71.235066 66,70.625 66,69.697366 65.35096,69.03125 64.46875,69.03125 z m 19.46875,0 c -1.780035,0 -3.125,1.357303 -3.125,3.1875 0,1.771697 1.391808,3.1875 3.125,3.1875 0.632381,0 1.234705,-0.180253 1.71875,-0.53125 0.398166,0.392782 0.742555,0.522893 1.28125,0.53125 l 0,-0.5625 c -0.04684,0.0084 -0.132828,0 -0.15625,0 -0.242022,0 -0.422078,-0.08686 -0.71875,-0.3125 0.624574,-0.56828 0.96875,-1.368152 0.96875,-2.3125 0,-1.830197 -1.32933,-3.1875 -3.09375,-3.1875 z m 42.71875,0 c -0.8744,0 -1.53125,0.68283 -1.53125,1.59375 0,0.551566 0.18782,0.917896 0.65625,1.21875 -0.63238,0.325925 -0.96875,0.912471 -0.96875,1.65625 0,1.086418 0.78197,1.90625 1.84375,1.90625 1.05397,0 1.8125,-0.786404 1.8125,-1.90625 0,-0.760493 -0.32856,-1.355396 -0.96875,-1.65625 0.46843,-0.233998 0.6875,-0.608684 0.6875,-1.21875 0,-0.927634 -0.64904,-1.59375 -1.53125,-1.59375 z m 17.96875,0 c -0.8666,0 -1.4375,0.645045 -1.4375,1.65625 l 0.5625,0 c 0,-0.685279 0.31288,-1.09375 0.875,-1.09375 0.51527,0 0.875,0.392113 0.875,0.96875 0,0.584994 -0.3676,0.96875 -0.96875,0.96875 -0.0234,0 -0.086,0.0084 -0.15625,0 l -0.125,0 0,0.53125 c 0.38255,0.0084 0.50011,0.02907 0.65625,0.0625 0.57773,0.14207 1,0.700256 1,1.34375 0,0.785564 -0.54735,1.40625 -1.25,1.40625 -0.67922,0 -1.28125,-0.463724 -1.28125,-1.5 l -0.59375,0 c 0,1.261916 0.82884,2.03125 1.875,2.03125 1.01493,0 1.8125,-0.857261 1.8125,-1.96875 0,-0.743779 -0.32075,-1.305253 -0.96875,-1.65625 0.40597,-0.300854 0.59375,-0.677719 0.59375,-1.1875 0,-0.919277 -0.61777,-1.5625 -1.46875,-1.5625 z m 4.375,0 c -1.10862,0 -1.84375,0.781691 -1.84375,2.09375 l 0.59375,0 c 0,-1.011205 0.4927,-1.53125 1.25,-1.53125 0.72607,0 1.25,0.537471 1.25,1.28125 0,0.685279 -0.46918,1.146113 -1.09375,1.78125 L 147.125,74.75 l 0,0.5625 3.65625,0 0,-0.5625 -2.875,0 1.84375,-1.90625 c 0.81195,-0.827349 1.0625,-1.277292 1.0625,-1.9375 0,-1.086418 -0.75853,-1.875 -1.8125,-1.875 z m 14.5625,0 c -1.17888,0 -1.9375,0.735193 -1.9375,2.28125 l 0,1.75 c 0,1.637984 0.75864,2.34375 1.96875,2.34375 1.17888,0 1.90625,-0.672337 1.90625,-2.34375 l 0,-1.75 c 0,-1.579485 -0.80546,-2.28125 -1.9375,-2.28125 z M 40.125,69.125 l 0,6.1875 1.5625,0 C 43.943772,75.3125 45,74.030054 45,72.25 c 0,-1.161632 -0.453711,-2.081791 -1.3125,-2.625 -0.546502,-0.350997 -1.141339,-0.5 -2.1875,-0.5 l -1.375,0 z m 5.8125,0 0,3.875 c 0,1.67977 0.805482,2.40625 1.96875,2.40625 1.171075,0 1.96875,-0.72648 1.96875,-2.40625 l 0,-3.875 -0.5625,0 0,3.875 c 0,1.261916 -0.516233,1.84375 -1.40625,1.84375 -0.905632,0 -1.375,-0.581834 -1.375,-1.84375 l 0,-3.875 -0.59375,0 z m 5.5625,0 -0.5,3.0625 0.4375,0.1875 c 0.351323,-0.467996 0.734684,-0.71875 1.1875,-0.71875 0.780717,0 1.375,0.691187 1.375,1.59375 0,0.902563 -0.60209,1.625 -1.375,1.625 -0.726067,0 -1.304757,-0.622508 -1.40625,-1.5 l -0.5625,0 c 0.171758,1.286988 0.953839,2.03125 2,2.03125 1.085197,0 1.9375,-0.944476 1.9375,-2.15625 0,-1.203417 -0.828861,-2.15625 -1.90625,-2.15625 -0.343515,0 -0.648677,0.103573 -1,0.3125 l 0.28125,-1.71875 2.125,0 0,-0.5625 -2.59375,0 z m 3.375,0 1.65625,6.1875 0.75,0 1.25,-5.0625 1.28125,5.0625 0.75,0 1.65625,-6.1875 -0.59375,0 -1.4375,5.375 -1.375,-5.375 -0.53125,0 -1.40625,5.375 -1.40625,-5.375 -0.59375,0 z m 12.34375,0 0,6.1875 2.96875,0 0,-0.5625 -2.375,0 0,-5.625 -0.59375,0 z m 3.25,0 0,0.5625 2.75,0 -2.84375,5.0625 0,0.5625 3.5625,0 0,-0.5625 -2.90625,0 2.8125,-5.0625 0,-0.5625 -3.375,0 z m 16.8125,0 2,4.125 0,2.0625 0.59375,0 0,-2.0625 2,-4.125 -0.625,0 -1.6875,3.46875 -1.625,-3.46875 -0.65625,0 z m 9.84375,0 0,0.5625 2.71875,0 -2.375,5.625 0.625,0 2.34375,-5.625 0,-0.5625 -3.3125,0 z m 6.125,0 -1.40625,2.28125 c -0.55431,0.877492 -0.6875,1.273291 -0.6875,1.875 0,1.228488 0.8289,2.125 1.96875,2.125 1.12423,0 1.96875,-0.925584 1.96875,-2.1875 0,-1.186703 -0.82101,-2.125 -1.84375,-2.125 -0.24202,0 -0.42986,0.06214 -0.6875,0.1875 l 1.375,-2.15625 -0.6875,0 z m 3.0625,0 0,1.625 -0.9375,0 0,0.5625 0.9375,0 0,4 0.5625,0 0,-4 0.96875,0 0,-0.5625 -0.96875,0 0,-1.625 -0.5625,0 z m 2.21875,0 0,6.1875 0.5625,0 0,-5.5 2.1875,5.5 0.5,0 2.15625,-5.5 0,5.5 0.59375,0 0,-6.1875 -0.90625,0 -2.09375,5.28125 -2.09375,-5.28125 -0.90625,0 z m 11.34375,0 2,4.125 0,2.0625 0.5625,0 0,-2.0625 2.03125,-4.125 -0.625,0 -1.6875,3.46875 -1.625,-3.46875 -0.65625,0 z m 9.15625,0 0,0.5625 2.75,0 -2.84375,5.0625 0,0.5625 3.5625,0 0,-0.5625 -2.90625,0 2.84375,-5.0625 0,-0.5625 -3.40625,0 z m 4.53125,0 0,1.625 -0.90625,0 0,0.5625 0.90625,0 0,4 0.59375,0 0,-4 0.96875,0 0,-0.5625 -0.96875,0 0,-1.625 -0.59375,0 z m 18.125,0 0,6.1875 0.5625,0 0,-0.78125 c 0.35913,0.56828 0.98485,0.875 1.6875,0.875 1.28818,0 2.25,-1.004442 2.25,-2.375 0,-1.345487 -0.98524,-2.40625 -2.25,-2.40625 -0.71826,0 -1.32056,0.329613 -1.6875,0.90625 l 0,-2.40625 -0.5625,0 z m 5.3125,0 0,6.1875 0.59375,0 0,-6.1875 -0.59375,0 z m 1.125,0 0,0.5625 1.3125,0 0,5.625 0.59375,0 0,-5.625 1.3125,0 0,-0.5625 -3.21875,0 z m 8.1875,0 0,6.1875 2.96875,0 0,-0.5625 -2.375,0 0,-5.625 -0.59375,0 z m 3.625,0 0,6.1875 0.5625,0 0,-2.5 1.125,0 c 1.56924,0 2.125,-0.642511 2.125,-1.8125 0,-1.295345 -0.63389,-1.875 -2.21875,-1.875 l -1.59375,0 z m 4.625,0 0,6.1875 0.5625,0 0,-5.5 2.15625,5.5 0.5,0 L 179,72.25 c -0.009,-0.457938 -0.0122,-0.919343 -0.0312,-1.375 l -1.40625,3.53125 -2.125,-5.28125 -0.875,0 z M 64.46875,69.59375 c 0.554309,0 0.9375,0.415006 0.9375,1 0,0.576637 -0.38317,1 -0.90625,1 -0.569923,0 -1,-0.437899 -1,-1.03125 0,-0.576637 0.414441,-0.96875 0.96875,-0.96875 z m 19.46875,0 c 1.420905,0 2.5,1.1458 2.5,2.625 0,0.727064 -0.250362,1.363041 -0.78125,1.90625 -0.960282,-0.902563 -1.782039,-1.375 -2.9375,-1.375 -0.445009,0 -0.773741,0.05997 -1.21875,0.21875 -0.06246,-0.300854 -0.09375,-0.461859 -0.09375,-0.6875 0,-1.520985 1.102538,-2.6875 2.53125,-2.6875 z m 42.71875,0 c 0.55431,0 0.9375,0.415006 0.9375,1 0,0.576637 -0.38317,1 -0.90625,1 -0.56992,0 -1,-0.437899 -1,-1.03125 0,-0.576637 0.41444,-0.96875 0.96875,-0.96875 z m 36.90625,0 c 1.05397,0 1.375,0.740618 1.375,1.84375 l 0,1.53125 c 0,1.370558 -0.43031,1.90625 -1.34375,1.90625 -0.83537,0 -1.40625,-0.460478 -1.40625,-1.90625 l 0,-1.53125 c 0,-1.378915 0.51621,-1.84375 1.375,-1.84375 z m -122.84375,0.09375 0.8125,0 c 0.874403,0 1.406549,0.12211 1.84375,0.40625 0.663609,0.42621 1.0625,1.205723 1.0625,2.125 0,0.810635 -0.312862,1.509112 -0.84375,1.96875 -0.460623,0.392782 -1.039761,0.5625 -2.0625,0.5625 l -0.8125,0 0,-5.0625 z m 129.78125,0 0.84375,0 c 1.10081,0 1.8125,0.05894 1.8125,1.3125 0,0.894206 -0.41485,1.25 -1.5625,1.25 l -1.09375,0 0,-2.5625 z m -33,0.9375 c -0.53869,0 -0.89085,0.196612 -1.21875,0.65625 l 0,-0.53125 -0.5625,0 0,4.5625 0.5625,0 0,-2.65625 c 0,-0.91092 0.43799,-1.46875 1.15625,-1.46875 0.6558,0 1.15625,0.449188 1.15625,1.46875 l 0,2.65625 0.5625,0 0,-2.65625 c 0,-1.036276 0.50828,-1.46875 1.1875,-1.46875 0.70265,0 1.125,0.440831 1.125,1.46875 l 0,2.65625 0.5625,0 0,-2.71875 c 0,-1.328773 -0.68035,-1.96875 -1.65625,-1.96875 -0.66361,0 -1.14087,0.264934 -1.5,0.875 -0.33571,-0.610066 -0.73481,-0.875 -1.375,-0.875 z M 32.34375,70.75 c -0.0082,0.186204 0.0065,0.375909 0,0.5625 l 0.3125,0 0,-0.5625 -0.3125,0 z m 41.71875,0 1.625,4.5625 0.625,0 0.90625,-3.03125 0.9375,3.03125 0.625,0 1.65625,-4.5625 -0.5625,0 -1.40625,3.8125 -1,-3.25 -0.46875,0 -1.03125,3.25 -1.34375,-3.8125 -0.5625,0 z m 41.5625,0 0,2.46875 c 0,1.596199 0.69605,2.1875 1.78125,2.1875 0.66361,0 1.08613,-0.24422 1.375,-0.8125 l 0,0.71875 0.59375,0 0,-4.5625 -0.59375,0 0,2.34375 c 0,1.245202 -0.53178,1.75 -1.3125,1.75 -0.82756,0 -1.28125,-0.463368 -1.28125,-1.625 l 0,-2.46875 -0.5625,0 z m 38.3125,0.4375 c 0.96028,0 1.65625,0.784581 1.65625,1.8125 0,1.05299 -0.72722,1.84375 -1.6875,1.84375 -0.93686,0 -1.6875,-0.832545 -1.6875,-1.84375 0,-1.011205 0.76628,-1.8125 1.71875,-1.8125 z m -59.96875,0.03125 0,1.6875 -1.59375,0 0,0.625 1.59375,0 0,1.6875 0.59375,0 0,-1.6875 1.5625,0 0,-0.625 -1.5625,0 0,-1.6875 -0.59375,0 z m 9.15625,0.4375 c 0.80414,0 1.375,0.674473 1.375,1.59375 0,0.927634 -0.58648,1.625 -1.375,1.625 -0.81195,0 -1.40625,-0.689009 -1.40625,-1.625 0,-0.885849 0.61773,-1.59375 1.40625,-1.59375 z M 64.1875,72.1875 c 0.08528,-0.0166 0.18854,0 0.28125,0 0.726067,0 1.25,0.535293 1.25,1.3125 0,0.785564 -0.523933,1.375 -1.25,1.375 -0.749488,0 -1.28125,-0.581079 -1.28125,-1.375 0,-0.680056 0.403011,-1.196301 1,-1.3125 z m 62.1875,0 c 0.0853,-0.0166 0.18854,0 0.28125,0 0.72607,0 1.25,0.535293 1.25,1.3125 0,0.785564 -0.52393,1.375 -1.25,1.375 -0.74949,0 -1.28125,-0.581079 -1.28125,-1.375 0,-0.680056 0.40301,-1.196301 1,-1.3125 z m -43.75,1.15625 c 0.983703,0 1.727133,0.314365 2.5625,1.125 -0.390358,0.259069 -0.765955,0.375 -1.25,0.375 -0.952475,0 -1.851813,-0.608328 -2.21875,-1.34375 0.312287,-0.133713 0.54712,-0.15625 0.90625,-0.15625 z m -38.71875,6.125 c -1.124232,0 -1.9375,0.925584 -1.9375,2.1875 0,1.186703 0.821011,2.125 1.84375,2.125 0.242022,0 0.398613,-0.03089 0.65625,-0.15625 l -1.34375,2.125 0.65625,0 1.4375,-2.28125 c 0.546502,-0.869135 0.6875,-1.233684 0.6875,-1.84375 0,-1.228488 -0.860153,-2.15625 -2,-2.15625 z m 53.59375,0 c -0.929053,0 -1.59375,0.695188 -1.59375,1.65625 0,0.42621 0.148613,0.834681 0.40625,1.09375 0.226408,0.233998 0.422333,0.345216 1.09375,0.5625 0.991511,0.325925 1.28125,0.604328 1.28125,1.28125 0,0.71035 -0.500448,1.25 -1.15625,1.25 -0.647995,0 -1.101621,-0.453901 -1.1875,-1.28125 l -0.625,0 c 0.05465,1.111489 0.774146,1.84375 1.8125,1.84375 0.999318,0 1.75,-0.79076 1.75,-1.84375 0,-0.543209 -0.226813,-1.020003 -0.59375,-1.3125 -0.234215,-0.183855 -0.469155,-0.307788 -1.0625,-0.5 -0.52308,-0.167141 -0.695414,-0.23293 -0.84375,-0.375 C 96.617299,81.693323 96.5,81.40914 96.5,81.125 c 0,-0.618423 0.422269,-1.09375 1,-1.09375 0.585538,0 1.03125,0.456435 1.03125,1.125 l 0.59375,0 c 0,-1.002848 -0.680333,-1.6875 -1.625,-1.6875 z m 16.84375,0 c -1.17888,0 -1.9375,0.735193 -1.9375,2.28125 l 0,1.75 c 0,1.637984 0.75864,2.375 1.96875,2.375 1.17888,0 1.90625,-0.703587 1.90625,-2.375 l 0,-1.75 c 0,-1.579485 -0.80546,-2.28125 -1.9375,-2.28125 z m 25.65625,0 c -1.17888,0 -1.9375,0.735193 -1.9375,2.28125 l 0,1.75 c 0,1.637984 0.78989,2.375 2,2.375 1.17888,0 1.875,-0.703587 1.875,-2.375 l 0,-1.75 c 0,-1.579485 -0.80546,-2.28125 -1.9375,-2.28125 z m -107.40625,0.125 c 0.01832,0.186835 0.01126,0.376108 0.03125,0.5625 l 0.34375,0 0,-0.5625 -0.375,0 z m 2.96875,0 -1.96875,6.4375 c 0.05297,0.25759 0.06883,0.524707 0.125,0.78125 l 0.125,0 2.28125,-7.21875 -0.5625,0 z m 1.46875,0 0,6.15625 0.5625,0 0,-2.90625 3,0 0,2.90625 0.59375,0 0,-6.15625 -0.59375,0 0,2.71875 -3,0 0,-2.71875 -0.5625,0 z m 13.34375,0 0,2.3125 c -0.421587,-0.543209 -0.984833,-0.84375 -1.65625,-0.84375 -1.288183,0 -2.28125,1.044049 -2.28125,2.40625 0,1.353844 0.993088,2.40625 2.3125,2.40625 0.710452,0 1.195606,-0.277292 1.625,-0.9375 l 0,0.8125 0.59375,0 0,-6.15625 -0.59375,0 z m 9.625,0 0,0.5625 0.96875,0 0,5.59375 0.5625,0 0,-6.15625 -1.53125,0 z m 9.65625,0 2.375,6.15625 0.5625,0 L 75,79.59375 l -0.625,0 L 72.3125,85 l -2.03125,-5.40625 -0.625,0 z m 14.34375,0 -1.4375,2.25 c -0.554309,0.877492 -0.6875,1.273291 -0.6875,1.875 0,1.228488 0.860153,2.15625 2,2.15625 1.124232,0 1.9375,-0.925584 1.9375,-2.1875 0,-1.186703 -0.789761,-2.125 -1.8125,-2.125 -0.242022,0 -0.429863,0.03089 -0.6875,0.15625 l 1.34375,-2.125 -0.65625,0 z m 6.3125,0 0,2.3125 C 89.890913,81.363041 89.296417,81.0625 88.625,81.0625 c -1.288183,0 -2.28125,1.044049 -2.28125,2.40625 0,1.353844 1.024338,2.40625 2.34375,2.40625 0.710452,0 1.195606,-0.277292 1.625,-0.9375 l 0,0.8125 0.5625,0 0,-6.15625 -0.5625,0 z m 9.71875,0 0,6.15625 1.4375,0 c 1.60047,0 2.21875,-0.529869 2.21875,-1.75 0,-0.752136 -0.29733,-1.238753 -0.96875,-1.53125 0.44501,-0.267426 0.65625,-0.671184 0.65625,-1.28125 0,-1.061347 -0.59471,-1.59375 -2,-1.59375 l -1.34375,0 z m 10.96875,0 0,6.15625 0.5625,0 0,-6.15625 -0.5625,0 z m 5.6875,0 1.84375,3 -1.96875,3.15625 0.6875,0 1.625,-2.625 1.65625,2.625 0.65625,0 -1.96875,-3.15625 1.875,-3 -0.6875,0 -1.53125,2.46875 -1.53125,-2.46875 -0.65625,0 z m 4.65625,0 2.375,6.15625 0.5625,0 2.375,-6.15625 -0.625,0 L 124,85 l -2.03125,-5.40625 -0.625,0 z m 13.3125,0 0,6.15625 0.5625,0 0,-2.8125 2.28125,0 0,-0.5625 -2.28125,0 0,-2.21875 2.34375,0 0,-0.5625 -2.90625,0 z m 7.59375,0 2.375,6.15625 0.5625,0 2.375,-6.15625 -0.625,0 L 144.90625,85 142.875,79.59375 l -0.625,0 z m 7.9375,0 -2.21875,7.21875 0.5,0 2.28125,-7.21875 -0.5625,0 z m 9.90625,0 -2.25,7.21875 0.53125,0 2.25,-7.21875 -0.53125,0 z m 1.34375,0 0,6.15625 0.59375,0 0,-2.5 c 0,-1.119846 0.53957,-1.59375 1.28125,-1.59375 0.78072,0 1.34375,0.519689 1.34375,1.65625 l 0,2.4375 0.5625,0 0,-2.4375 c 0,-1.529342 -0.73513,-2.25 -1.84375,-2.25 -0.58554,0 -1.05488,0.267469 -1.34375,0.71875 l 0,-2.1875 -0.59375,0 z m 6.84375,0 -2.46875,6.15625 0.59375,0 0.84375,-2.0625 2.6875,0 0.84375,2.0625 0.625,0 -2.5,-6.15625 -0.625,0 z m 2.9375,0 1.65625,6.15625 0.75,0 1.25,-5.0625 1.28125,5.0625 0.75,0 1.65625,-6.15625 -0.59375,0 -1.4375,5.375 -1.375,-5.375 -0.53125,0 -1.40625,5.375 -1.40625,-5.375 -0.59375,0 z M 80.625,79.625 l 0,1.0625 0.5625,0 0,-1.0625 -0.5625,0 z m -36.71875,0.40625 c 0.811946,0 1.40625,0.689009 1.40625,1.625 0,0.885849 -0.586476,1.5625 -1.375,1.5625 -0.804138,0 -1.40625,-0.674473 -1.40625,-1.59375 0,-0.935991 0.586476,-1.59375 1.375,-1.59375 z m 70.4375,0 c 1.05397,0 1.375,0.771868 1.375,1.875 l 0,1.5 c 0,1.370558 -0.43031,1.90625 -1.34375,1.90625 -0.83537,0 -1.40625,-0.460478 -1.40625,-1.90625 l 0,-1.5 c 0,-1.378915 0.51621,-1.875 1.375,-1.875 z m 25.65625,0 c 1.05397,0 1.375,0.771868 1.375,1.875 l 0,1.5 c 0,1.370558 -0.43031,1.90625 -1.34375,1.90625 -0.83537,0 -1.375,-0.460478 -1.375,-1.90625 l 0,-1.5 c 0,-1.378915 0.48496,-1.875 1.34375,-1.875 z m -39.375,0.125 0.6875,0 c 1.16327,0 1.46875,0.279114 1.46875,1.03125 0,0.777207 -0.38355,1.0625 -1.46875,1.0625 l -0.6875,0 0,-2.09375 z m 67.96875,0.125 1.125,2.84375 -2.25,0 1.125,-2.84375 z m -114.875,0.78125 c -0.538695,0 -0.859599,0.196612 -1.1875,0.65625 l 0,-0.53125 -0.59375,0 0,4.5625 0.59375,0 0,-2.65625 c 0,-0.91092 0.43799,-1.4375 1.15625,-1.4375 0.655802,0 1.15625,0.417938 1.15625,1.4375 l 0,2.65625 0.5625,0 0,-2.65625 c 0,-1.036276 0.477026,-1.46875 1.15625,-1.46875 0.702645,0 1.15625,0.440831 1.15625,1.46875 l 0,2.65625 0.5625,0 0,-2.71875 c 0,-1.328773 -0.711604,-1.96875 -1.6875,-1.96875 -0.663609,0 -1.10962,0.296184 -1.46875,0.90625 -0.335708,-0.610066 -0.766062,-0.90625 -1.40625,-0.90625 z m 23.96875,0 c -1.280376,0 -2.3125,1.077477 -2.3125,2.40625 0,1.362201 1.032146,2.40625 2.34375,2.40625 0.88221,0 1.578477,-0.424117 2.09375,-1.46875 l -0.65625,0 c -0.445009,0.635137 -0.867598,0.90625 -1.46875,0.90625 -0.960282,0 -1.71875,-0.832545 -1.71875,-1.84375 0,-1.027919 0.735025,-1.8125 1.6875,-1.8125 0.632381,0 1.172099,0.304541 1.5,0.90625 l 0.65625,0 c -0.343515,-0.919277 -1.164718,-1.5 -2.125,-1.5 z m 51.3125,0 c -0.53869,0 -0.8596,0.196612 -1.1875,0.65625 l 0,-0.53125 -0.59375,0 0,4.5625 0.59375,0 0,-2.65625 c 0,-0.91092 0.43799,-1.4375 1.15625,-1.4375 0.6558,0 1.15625,0.417938 1.15625,1.4375 l 0,2.65625 0.5625,0 0,-2.65625 c 0,-1.036276 0.47703,-1.46875 1.15625,-1.46875 0.70265,0 1.15625,0.440831 1.15625,1.46875 l 0,2.65625 0.5625,0 0,-2.71875 c 0,-1.328773 -0.7116,-1.96875 -1.6875,-1.96875 -0.66361,0 -1.10962,0.296184 -1.46875,0.90625 C 130.07054,81.358684 129.64019,81.0625 129,81.0625 z m -65.84375,0.125 1.625,4.5625 0.625,0 0.9375,-3.03125 0.9375,3.03125 0.59375,0 1.65625,-4.5625 -0.5625,0 -1.375,3.8125 -1,-3.25 -0.5,0 -1,3.25 -1.34375,-3.8125 -0.59375,0 z m 17.46875,0 0,4.25 c 0,0.952705 -0.227005,1.301965 -0.875,1.34375 l 0,0.59375 c 0.968089,-0.04179 1.4375,-0.617084 1.4375,-1.9375 l 0,-4.25 -0.5625,0 z m 10.8125,0 1.65625,4.40625 -0.6875,1.78125 0.625,0 2.46875,-6.1875 -0.625,0 -1.4375,3.65625 -1.34375,-3.65625 -0.65625,0 z m 12.53125,0 1.65625,4.5625 0.625,0 0.90625,-3.03125 0.9375,3.03125 0.625,0 1.625,-4.5625 -0.5625,0 -1.375,3.8125 -1,-3.25 -0.46875,0 -1.03125,3.25 -1.34375,-3.8125 -0.59375,0 z m 47.15625,0 1.625,4.5625 0.625,0 0.90625,-3.03125 0.9375,3.03125 0.625,0 1.65625,-4.5625 -0.5625,0 -1.40625,3.8125 -1,-3.25 -0.46875,0 -1,3.25 -1.375,-3.8125 -0.5625,0 z M 48.6875,81.65625 c 0.944667,0 1.71875,0.809652 1.71875,1.8125 0,1.002848 -0.742811,1.84375 -1.65625,1.84375 -0.975896,0 -1.71875,-0.830367 -1.71875,-1.875 0,-1.002848 0.727197,-1.78125 1.65625,-1.78125 z m 39.90625,0 c 0.944667,0 1.71875,0.809652 1.71875,1.8125 0,1.002848 -0.742811,1.84375 -1.65625,1.84375 -0.975896,0 -1.71875,-0.830367 -1.71875,-1.875 0,-1.002848 0.727197,-1.78125 1.65625,-1.78125 z M 83.875,82.125 c 0.804138,0 1.375,0.643223 1.375,1.5625 0,0.927634 -0.586476,1.625 -1.375,1.625 -0.811946,0 -1.40625,-0.689009 -1.40625,-1.625 0,-0.885849 0.617726,-1.5625 1.40625,-1.5625 z m 16.75,0.6875 0.6875,0 c 1.02274,0 1.78125,0.06548 1.78125,1.21875 0,0.894206 -0.50862,1.15625 -1.6875,1.15625 l -0.78125,0 0,-2.375 z m -2.4375,7.09375 c -1.124232,0 -1.9375,0.925584 -1.9375,2.1875 0,1.186703 0.789761,2.125 1.8125,2.125 0.242022,0 0.429863,-0.03089 0.6875,-0.15625 l -1.34375,2.15625 0.65625,0 L 99.5,93.9375 c 0.5465,-0.869135 0.6875,-1.264934 0.6875,-1.875 0,-1.228488 -0.860153,-2.15625 -2,-2.15625 z m 42.21875,0 c -1.71758,0 -3,1.371839 -3,3.21875 0,1.805126 1.30587,3.1875 3.03125,3.1875 1.17108,0 2.04727,-0.573832 2.625,-1.71875 l -0.625,0 c -0.60896,0.818992 -1.15683,1.15625 -2,1.15625 -1.33503,0 -2.4375,-1.179228 -2.4375,-2.625 0,-1.487557 1.03219,-2.625 2.40625,-2.625 0.81195,0 1.50815,0.297651 2,1.125 l 0.65625,0 c -0.44501,-1.061347 -1.46175,-1.71875 -2.65625,-1.71875 z m 19.28125,0 c -1.78003,0 -3.125,1.388553 -3.125,3.21875 0,1.771697 1.39181,3.1875 3.125,3.1875 0.63238,0 1.23471,-0.180253 1.71875,-0.53125 0.39817,0.392782 0.74256,0.522893 1.28125,0.53125 l 0,-0.5625 c -0.0468,0.0084 -0.13283,0 -0.15625,0 -0.24202,0 -0.42208,-0.08686 -0.71875,-0.3125 0.62457,-0.56828 0.96875,-1.399402 0.96875,-2.34375 0,-1.830197 -1.32933,-3.1875 -3.09375,-3.1875 z m 5.4375,0 c -0.8666,0 -1.46875,0.645045 -1.46875,1.65625 l 0.59375,0 c 0,-0.685279 0.31288,-1.09375 0.875,-1.09375 0.51527,0 0.875,0.423363 0.875,1 0,0.584994 -0.3676,0.96875 -0.96875,0.96875 -0.0234,0 -0.086,-0.02289 -0.15625,-0.03125 l -0.125,0 0,0.5625 c 0.38255,0.0084 0.50011,-0.0022 0.65625,0.03125 0.57773,0.14207 0.96875,0.731506 0.96875,1.375 0,0.785564 -0.54735,1.375 -1.25,1.375 -0.67922,0 -1.28125,-0.432474 -1.28125,-1.46875 l -0.5625,0 c 0,1.261916 0.82884,2.03125 1.875,2.03125 1.01493,0 1.8125,-0.857261 1.8125,-1.96875 0,-0.743779 -0.32075,-1.336503 -0.96875,-1.6875 0.40597,-0.300854 0.59375,-0.677719 0.59375,-1.1875 0,-0.919277 -0.61777,-1.5625 -1.46875,-1.5625 z m -122.59375,0.125 -1.4375,2.28125 c -0.554309,0.877492 -0.6875,1.242041 -0.6875,1.84375 0,1.228488 0.860153,2.15625 2,2.15625 1.124232,0 1.9375,-0.925584 1.9375,-2.1875 C 44.34375,92.938297 43.522739,92 42.5,92 c -0.242022,0 -0.398613,0.06214 -0.65625,0.1875 l 1.34375,-2.15625 -0.65625,0 z m 7.875,0 0,6.1875 0.5625,0 0,-6.1875 -0.5625,0 z m 3.71875,0 -2.25,7.25 0.53125,0 2.28125,-7.25 -0.5625,0 z m 1.375,0 0,6.1875 0.5625,0 0,-2.53125 c 0,-1.119846 0.570819,-1.59375 1.3125,-1.59375 0.780717,0 1.3125,0.519689 1.3125,1.65625 l 0,2.46875 0.5625,0 0,-2.46875 c 0,-1.529342 -0.735132,-2.21875 -1.84375,-2.21875 -0.585538,0 -1.054885,0.236219 -1.34375,0.6875 l 0,-2.1875 -0.5625,0 z m 6.03125,0 0,0.5625 2.75,0 -2.84375,5.0625 0,0.5625 3.5625,0 0,-0.5625 -2.90625,0 2.8125,-5.0625 0,-0.5625 -3.375,0 z m 7.0625,0 0,6.1875 0.5625,0 0,-0.96875 0.6875,-0.875 1.40625,1.84375 0.71875,0 -1.78125,-2.28125 1.6875,-2.3125 -0.71875,0 -2,2.78125 0,-4.375 -0.5625,0 z m 4,0 0,6.1875 1.4375,0 c 1.60047,0 2.21875,-0.561119 2.21875,-1.78125 0,-0.752136 -0.297333,-1.238753 -0.96875,-1.53125 0.445009,-0.267426 0.65625,-0.671184 0.65625,-1.28125 0,-1.061347 -0.56346,-1.59375 -1.96875,-1.59375 l -1.375,0 z m 6.8125,0 -2.8125,4.46875 0,0.5625 2.90625,0 0,1.15625 0.5625,0 0,-1.15625 0.53125,0 0,-0.5625 -0.53125,0 0,-4.46875 -0.65625,0 z m 3.84375,0 c -1.100811,0 -1.640614,0.532403 -1.625,1.59375 l -0.6875,0 0,0.5625 0.6875,0 0,4.03125 0.5625,0 0,-4.03125 1.0625,0 0,-0.5625 -1.0625,0 c -0.0078,-0.760493 0.273976,-1.03125 1.0625,-1.03125 l 0,-0.5625 z m 5.375,0 1.625,6.1875 0.75,0 1.28125,-5.09375 1.28125,5.09375 0.75,0 1.65625,-6.1875 -0.59375,0 -1.4375,5.375 -1.375,-5.375 -0.5625,0 -1.375,5.375 -1.40625,-5.375 -0.59375,0 z m 12.34375,0 0,6.1875 0.5625,0 0,-2.84375 2.28125,0 0,-0.5625 -2.28125,0 0,-2.21875 2.375,0 0,-0.5625 -2.9375,0 z m 10.6875,0 0,4.25 c 0,0.977776 -0.31293,1.46875 -0.9375,1.46875 -0.56992,0 -0.96096,-0.37322 -1,-1 l -0.5625,0 c 0.0468,0.986133 0.61,1.5625 1.53125,1.5625 0.9837,0 1.53125,-0.660692 1.53125,-2.03125 l 0,-4.25 -0.5625,0 z m 6.71875,0 0,0.5625 0.96875,0 0,5.625 0.59375,0 0,-6.1875 -1.5625,0 z m 26.0625,0 -0.5,3.03125 0.4375,0.1875 c 0.35132,-0.467996 0.73468,-0.6875 1.1875,-0.6875 0.78072,0 1.375,0.691187 1.375,1.59375 0,0.902563 -0.60209,1.59375 -1.375,1.59375 -0.72607,0 -1.30476,-0.622508 -1.40625,-1.5 l -0.5625,0 c 0.17176,1.286988 0.95384,2.0625 2,2.0625 1.0852,0 1.9375,-0.944476 1.9375,-2.15625 0,-1.203417 -0.82886,-2.15625 -1.90625,-2.15625 -0.34352,0 -0.64868,0.07232 -1,0.28125 l 0.28125,-1.6875 2.125,0 0,-0.5625 -2.59375,0 z m 8.25,0 0,0.5625 2.75,0 -2.84375,5.0625 0,0.5625 3.59375,0 0,-0.5625 -2.9375,0 2.84375,-5.0625 0,-0.5625 -3.40625,0 z m 20.21875,0 0,6.1875 0.5625,0 0,-0.8125 c 0.27977,0.442696 0.70958,0.734711 1.21875,0.84375 0.0698,-0.177926 0.15054,-0.352632 0.21875,-0.53125 -0.83219,-0.119021 -1.46875,-0.882109 -1.46875,-1.8125 0,-1.011205 0.73503,-1.8125 1.6875,-1.8125 0.34472,0 0.67719,0.105299 0.9375,0.28125 0.0569,-0.178714 0.13214,-0.351923 0.1875,-0.53125 -0.32588,-0.192393 -0.68582,-0.3125 -1.09375,-0.3125 -0.71826,0 -1.32056,0.298363 -1.6875,0.875 l 0,-2.375 -0.5625,0 z M 60.25,90.0625 l 0,1.0625 0.5625,0 0,-1.0625 -0.5625,0 z m 44.40625,0 0,1.0625 0.59375,0 0,-1.0625 -0.59375,0 z m -6.46875,0.40625 c 0.811946,0 1.40625,0.689009 1.40625,1.625 0,0.885849 -0.617726,1.5625 -1.40625,1.5625 -0.804138,0 -1.375,-0.643223 -1.375,-1.5625 0,-0.935991 0.586476,-1.625 1.375,-1.625 z m 61.5,0.03125 c 1.4209,0 2.5,1.11455 2.5,2.59375 0,0.727064 -0.25036,1.394291 -0.78125,1.9375 -0.96028,-0.902563 -1.78204,-1.375 -2.9375,-1.375 -0.44501,0 -0.77374,0.05997 -1.21875,0.21875 -0.0625,-0.300854 -0.0937,-0.493109 -0.0937,-0.71875 0,-1.520985 1.10254,-2.65625 2.53125,-2.65625 z m -86.5,0.09375 0.6875,0 c 1.163268,0 1.46875,0.279114 1.46875,1.03125 0,0.777207 -0.383553,1.0625 -1.46875,1.0625 l -0.6875,0 0,-2.09375 z M 79.5,90.875 l 0,3.625 -2.25,0 2.25,-3.625 z m -41.71875,0.65625 c -1.09643,0 -1.983916,0.756218 -2.21875,1.8125 0.28623,0.850405 0.584596,1.695619 0.90625,2.53125 0.0048,0.01248 0.02644,0.01878 0.03125,0.03125 0.370536,0.255462 0.820648,0.40625 1.3125,0.40625 0.88221,0 1.578477,-0.424117 2.09375,-1.46875 l -0.65625,0 C 38.804991,95.478887 38.413652,95.75 37.8125,95.75 c -0.960282,0 -1.71875,-0.801295 -1.71875,-1.8125 0,-1.027919 0.735025,-1.84375 1.6875,-1.84375 0.632381,0 1.140849,0.335791 1.46875,0.9375 l 0.65625,0 c -0.343515,-0.919277 -1.164718,-1.5 -2.125,-1.5 z m 9.28125,0 c -1.249147,0 -2.1875,1.027335 -2.1875,2.40625 0,1.33713 0.969603,2.375 2.21875,2.375 0.765103,0 1.289292,-0.329257 1.625,-1.03125 l 0,0.3125 c 0,1.203417 -0.531954,1.84375 -1.5625,1.84375 -0.71826,0 -1.125299,-0.266401 -1.5625,-1.09375 l -0.5625,0 C 45.343537,97.413454 46.110111,98 47.1875,98 c 0.741681,0 1.351813,-0.294362 1.71875,-0.8125 0.288865,-0.417853 0.40625,-0.918294 0.40625,-1.8125 l 0,-3.75 -0.59375,0 0,0.8125 C 48.289356,91.81072 47.78076,91.53125 47.0625,91.53125 z m 19.5,0 c -0.694838,0 -1.21875,0.537471 -1.21875,1.28125 0,0.325925 0.132956,0.603573 0.34375,0.8125 0.171758,0.175498 0.180098,0.178431 0.78125,0.4375 0.616766,0.267426 0.8125,0.415362 0.8125,0.875 0,0.459638 -0.30497,0.8125 -0.71875,0.8125 -0.476237,0 -0.78125,-0.346327 -0.78125,-0.90625 l -0.59375,0 c 0,0.885849 0.555247,1.46875 1.375,1.46875 0.765103,0 1.3125,-0.570544 1.3125,-1.40625 0,-0.559923 -0.250341,-0.961859 -0.75,-1.1875 -0.647995,-0.28414 -0.656335,-0.308143 -0.78125,-0.375 C 66.078306,93.20168 65.9375,93.017426 65.9375,92.75 c 0,-0.367711 0.281485,-0.65625 0.625,-0.65625 0.374744,0 0.625,0.221683 0.625,0.65625 l 0.59375,0 c 0,-0.735422 -0.531719,-1.21875 -1.21875,-1.21875 z m 19.21875,0 c -1.249147,0 -2.1875,1.027335 -2.1875,2.40625 0,1.33713 1.000853,2.375 2.25,2.375 0.765103,0 1.289292,-0.329257 1.625,-1.03125 l 0,0.3125 c 0,1.203417 -0.531954,1.84375 -1.5625,1.84375 -0.71826,0 -1.156549,-0.266401 -1.59375,-1.09375 l -0.5625,0 C 84.062287,97.413454 84.828861,98 85.90625,98 c 0.741681,0 1.383063,-0.294362 1.75,-0.8125 0.288865,-0.417853 0.375,-0.918294 0.375,-1.8125 l 0,-3.75 -0.5625,0 0,0.8125 c -0.429394,-0.62678 -0.96924,-0.90625 -1.6875,-0.90625 z m 48.96875,0 c -0.56212,0 -1.01587,0.219504 -1.375,0.6875 l 0,-0.59375 -0.59375,0 0,4.59375 0.59375,0 0,-2.53125 c 0,-1.119846 0.53959,-1.59375 1.3125,-1.59375 0.78852,0 1.3125,0.473548 1.3125,1.71875 l 0,2.40625 0.5625,0 0,-2.40625 c 0,-1.604556 -0.74292,-2.28125 -1.8125,-2.28125 z m 35.21875,0 c -1.28038,0 -2.28125,1.046227 -2.28125,2.375 0,1.362201 1.0009,2.40625 2.3125,2.40625 0.88221,0 1.57848,-0.424117 2.09375,-1.46875 l -0.65625,0 C 170.99249,95.478887 170.60115,95.75 170,95.75 c -0.96028,0 -1.71875,-0.801295 -1.71875,-1.8125 0,-1.027919 0.73503,-1.84375 1.6875,-1.84375 0.63238,0 1.14085,0.335791 1.46875,0.9375 l 0.65625,0 c -0.34352,-0.919277 -1.16472,-1.5 -2.125,-1.5 z M 60.25,91.625 l 0,4.59375 0.5625,0 0,-4.59375 -0.5625,0 z m 44.40625,0 0,4.25 c 0,0.952705 -0.19575,1.301965 -0.84375,1.34375 l 0,0.59375 c 0.96809,-0.04179 1.4375,-0.617084 1.4375,-1.9375 l 0,-4.25 -0.59375,0 z m 1.25,0 0,0.5625 2.28125,0 -2.375,3.46875 0,0.5625 3.15625,0 0,-0.5625 -2.46875,0 2.34375,-3.5 0,-0.53125 -2.9375,0 z m 7,0 1.78125,4.59375 0.625,0 1.78125,-4.59375 -0.59375,0 -1.53125,3.84375 -1.5,-3.84375 -0.5625,0 z m 8.65625,0 1.78125,4.59375 0.625,0 1.78125,-4.59375 -0.59375,0 -1.53125,3.84375 -1.5,-3.84375 -0.5625,0 z m 4.3125,0 1.625,4.59375 0.625,0 0.9375,-3.0625 0.90625,3.0625 0.625,0 1.65625,-4.59375 -0.5625,0 -1.375,3.84375 -1.03125,-3.28125 -0.46875,0 -1,3.28125 -1.34375,-3.84375 -0.59375,0 z m 22.34375,0 0,2.46875 c 0,1.596199 0.7273,2.21875 1.8125,2.21875 0.66361,0 1.08613,-0.24422 1.375,-0.8125 l 0,0.71875 0.59375,0 0,-4.59375 -0.59375,0 0,2.34375 c 0,1.245202 -0.53178,1.78125 -1.3125,1.78125 -0.82756,0 -1.28125,-0.494618 -1.28125,-1.65625 l 0,-2.46875 -0.59375,0 z m -101.125,0.46875 c 0.921246,0 1.625,0.78676 1.625,1.78125 0,1.069704 -0.695947,1.875 -1.625,1.875 -0.93686,0 -1.625,-0.813653 -1.625,-1.875 0,-1.044633 0.680333,-1.78125 1.625,-1.78125 z m 38.71875,0 c 0.921246,0 1.65625,0.78676 1.65625,1.78125 0,1.069704 -0.695947,1.875 -1.625,1.875 -0.93686,0 -1.65625,-0.813653 -1.65625,-1.875 0,-1.044633 0.680333,-1.78125 1.625,-1.78125 z M 42.375,92.5625 c 0.804138,0 1.40625,0.674473 1.40625,1.59375 0,0.927634 -0.586476,1.59375 -1.375,1.59375 C 41.594304,95.75 41,95.060991 41,94.125 c 0,-0.885849 0.586476,-1.5625 1.375,-1.5625 z m 30.8125,0.6875 0.6875,0 c 1.022739,0 1.8125,0.06548 1.8125,1.21875 0,0.894206 -0.539867,1.1875 -1.71875,1.1875 l -0.78125,0 0,-2.40625 z m 85.1875,0.96875 c 0.9837,0 1.72713,0.345615 2.5625,1.15625 -0.39036,0.259069 -0.76596,0.375 -1.25,0.375 -0.95247,0 -1.82056,-0.608328 -2.1875,-1.34375 0.31229,-0.133713 0.51587,-0.1875 0.875,-0.1875 z m -114.78125,6.25 0,6.1875 0.5625,0 0,-2.90625 3,0 0,2.90625 0.5625,0 0,-6.1875 -0.5625,0 0,2.71875 -3,0 0,-2.71875 -0.5625,0 z m 21.28125,0 -2.8125,4.5 0,0.5625 2.90625,0 0,1.125 0.5625,0 0,-1.125 0.53125,0 0,-0.5625 -0.53125,0 0,-4.5 -0.65625,0 z m 3.71875,0 -1.40625,2.28125 c -0.554309,0.87749 -0.6875,1.27329 -0.6875,1.875 0,1.22849 0.828903,2.125 1.96875,2.125 1.124232,0 1.96875,-0.92558 1.96875,-2.1875 0,-1.1867 -0.821011,-2.125 -1.84375,-2.125 -0.242022,0 -0.429863,0.0621 -0.6875,0.1875 l 1.375,-2.15625 -0.6875,0 z m 2.625,0 0,6.1875 1.4375,0 c 1.60047,0 2.21875,-0.56112 2.21875,-1.78125 0,-0.75214 -0.297333,-1.23875 -0.96875,-1.53125 0.445009,-0.26743 0.625,-0.63993 0.625,-1.25 0,-1.06135 -0.56346,-1.625 -1.96875,-1.625 l -1.34375,0 z m 11.21875,0 2,4.125 0,2.0625 0.59375,0 0,-2.0625 2,-4.125 -0.625,0 -1.6875,3.46875 -1.625,-3.46875 -0.65625,0 z m 5.1875,0 0,6.1875 0.59375,0 0,-5.4375 3.4375,5.4375 0.5625,0 0,-6.1875 -0.5625,0 0,5.125 -3.25,-5.125 -0.78125,0 z m 11.125,0 0,3.84375 c 0,1.67977 0.774232,2.4375 1.9375,2.4375 1.17108,0 1.96875,-0.75773 1.96875,-2.4375 l 0,-3.84375 -0.5625,0 0,3.84375 c 0,1.26192 -0.48498,1.875 -1.375,1.875 -0.905632,0 -1.40625,-0.61308 -1.40625,-1.875 l 0,-3.84375 -0.5625,0 z m 9.4375,0 0,6.1875 1.40625,0 c 1.60047,0 2.25,-0.56112 2.25,-1.78125 0,-0.75214 -0.29733,-1.23875 -0.96875,-1.53125 0.44501,-0.26743 0.625,-0.63993 0.625,-1.25 0,-1.06135 -0.56346,-1.625 -1.96875,-1.625 l -1.34375,0 z m 8.40625,0 0,0.5625 1,0 0,5.625 0.5625,0 0,-6.1875 -1.5625,0 z m 3.71875,0 0,6.1875 0.59375,0 0,-5.625 0.8125,0 c 1.34283,0 1.9375,0.37833 1.9375,1.40625 0,1.11149 -0.57142,1.40625 -2.1875,1.40625 l 1.96875,2.8125 0.71875,0 -1.625,-2.3125 c 1.10862,-0.12536 1.6875,-0.78022 1.6875,-1.875 0,-1.28699 -0.65749,-2 -2.46875,-2 l -1.4375,0 z m 4.75,0 0,6.1875 0.5625,0 0,-2.84375 2.28125,0 0,-0.5625 -2.28125,0 0,-2.21875 2.375,0 0,-0.5625 -2.9375,0 z m 10.15625,0 0,6.1875 0.5625,0 0,-2.5 c 0,-1.11985 0.57082,-1.625 1.3125,-1.625 0.78072,0 1.3125,0.51969 1.3125,1.65625 l 0,2.46875 0.59375,0 0,-2.46875 c 0,-1.52934 -0.73513,-2.21875 -1.84375,-2.21875 -0.58554,0 -1.08613,0.26747 -1.375,0.71875 l 0,-2.21875 -0.5625,0 z m 4.84375,0 0,6.1875 1.5625,0 c 2.25627,0 3.3125,-1.28245 3.3125,-3.0625 0,-1.16163 -0.45371,-2.08179 -1.3125,-2.625 -0.5465,-0.351 -1.14134,-0.5 -2.1875,-0.5 l -1.375,0 z m 7.78125,0 -2.25,7.25 0.53125,0 2.28125,-7.25 -0.5625,0 z m 17.25,0 0,6.1875 1.4375,0 c 1.60047,0 2.21875,-0.56112 2.21875,-1.78125 0,-0.75214 -0.29733,-1.23875 -0.96875,-1.53125 0.44501,-0.26743 0.65625,-0.63993 0.65625,-1.25 0,-1.06135 -0.59471,-1.625 -2,-1.625 l -1.34375,0 z m 6.03125,0 0,3.34375 c 0.19288,-0.34917 0.40736,-0.67861 0.59375,-1.03125 l 0,-1.75 0.8125,0 c 0.0119,0 0.0194,-6e-5 0.0312,0 0.0918,-0.18711 0.19123,-0.37448 0.28125,-0.5625 -0.0945,-0.004 -0.17962,0 -0.28125,0 l -1.4375,0 z m 6.46875,0 -1.4375,2.28125 c -0.55431,0.87749 -0.6875,1.27329 -0.6875,1.875 0,1.22849 0.86015,2.125 2,2.125 1.12423,0 1.9375,-0.92558 1.9375,-2.1875 0,-1.1867 -0.78976,-2.125 -1.8125,-2.125 -0.24202,0 -0.42986,0.0621 -0.6875,0.1875 l 1.34375,-2.15625 -0.65625,0 z m -8.125,0.0625 0,1.03125 0.59375,0 0,-1.03125 -0.59375,0 z m -97.6875,0.5 0.71875,0 c 1.163268,0 1.46875,0.31036 1.46875,1.0625 0,0.77721 -0.383553,1.03125 -1.46875,1.03125 l -0.71875,0 0,-2.09375 z m 36.96875,0 0.6875,0 c 1.16327,0 1.46875,0.31036 1.46875,1.0625 0,0.77721 -0.3523,1.03125 -1.4375,1.03125 l -0.71875,0 0,-2.09375 z m 31.90625,0 0.8125,0 c 0.8744,0 1.40655,0.12211 1.84375,0.40625 0.66361,0.42621 1.0625,1.20572 1.0625,2.125 0,0.81064 -0.31286,1.50911 -0.84375,1.96875 -0.46062,0.39278 -1.03976,0.5625 -2.0625,0.5625 l -0.8125,0 0,-5.0625 z m 25.03125,0 0.6875,0 c 1.16327,0 1.46875,0.31036 1.46875,1.0625 0,0.77721 -0.38355,1.03125 -1.46875,1.03125 l -0.6875,0 0,-2.09375 z m -100.71875,0.28125 0,3.65625 -2.25,0 2.25,-3.65625 z m -15.125,0.65625 c -0.694838,0 -1.21875,0.53747 -1.21875,1.28125 0,0.32593 0.101706,0.60357 0.3125,0.8125 0.171758,0.1755 0.211348,0.20968 0.8125,0.46875 0.616766,0.26743 0.8125,0.41536 0.8125,0.875 0,0.45964 -0.30497,0.78125 -0.71875,0.78125 -0.476237,0 -0.8125,-0.31508 -0.8125,-0.875 l -0.5625,0 c 0,0.88585 0.555247,1.4375 1.375,1.4375 0.765103,0 1.3125,-0.57054 1.3125,-1.40625 0,-0.55992 -0.250341,-0.96186 -0.75,-1.1875 -0.647995,-0.28414 -0.687585,-0.27689 -0.8125,-0.34375 -0.265444,-0.14207 -0.375,-0.35757 -0.375,-0.625 0,-0.36771 0.281485,-0.65625 0.625,-0.65625 0.374744,0 0.625,0.25293 0.625,0.6875 l 0.5625,0 c 0,-0.73542 -0.500469,-1.25 -1.1875,-1.25 z m 4.03125,0 c -1.249147,0 -2.1875,1.02733 -2.1875,2.40625 0,1.33713 0.969603,2.375 2.21875,2.375 0.765103,0 1.320542,-0.32926 1.65625,-1.03125 l 0,0.3125 c 0,1.20342 -0.563204,1.84375 -1.59375,1.84375 -0.71826,0 -1.125299,-0.2664 -1.5625,-1.09375 l -0.5625,0 c 0.312287,1.0697 1.078861,1.65625 2.15625,1.65625 0.741681,0 1.351813,-0.29436 1.71875,-0.8125 0.288865,-0.41785 0.40625,-0.88704 0.40625,-1.78125 l 0,-3.75 -0.5625,0 0,0.78125 c -0.429394,-0.62678 -0.96924,-0.90625 -1.6875,-0.90625 z m 5.3125,0 c -1.280376,0 -2.25,1.03569 -2.25,2.40625 0,1.3622 1.000896,2.375 2.3125,2.375 0.726067,0 1.172184,-0.2544 1.625,-0.90625 l 0,0.8125 0.59375,0 0,-4.5625 -0.59375,0 0,0.78125 c -0.421587,-0.63514 -0.945819,-0.90625 -1.6875,-0.90625 z m 18.1875,0 c -0.538695,0 -0.859599,0.16536 -1.1875,0.625 l 0,-0.5 -0.59375,0 0,4.5625 0.59375,0 0,-2.6875 c 0,-0.91092 0.40674,-1.4375 1.125,-1.4375 0.655802,0 1.15625,0.41794 1.15625,1.4375 l 0,2.6875 0.59375,0 0,-2.65625 c 0,-1.03628 0.477026,-1.46875 1.15625,-1.46875 0.702645,0 1.15625,0.44083 1.15625,1.46875 l 0,2.65625 0.5625,0 0,-2.71875 c 0,-1.32877 -0.711604,-1.96875 -1.6875,-1.96875 -0.663609,0 -1.10962,0.26493 -1.46875,0.875 -0.335708,-0.61007 -0.766062,-0.875 -1.40625,-0.875 z m 18.03125,0 c -1.272569,0 -2.25,1.05241 -2.25,2.40625 0,1.34549 0.977431,2.375 2.25,2.375 0.710452,0 1.312756,-0.29001 1.6875,-0.875 l 0,2.375 0.5625,0 0,-6.15625 -0.5625,0 0,0.78125 c -0.35913,-0.58499 -0.961433,-0.90625 -1.6875,-0.90625 z m 64.0625,0 c -0.53869,0 -0.89085,0.16536 -1.21875,0.625 l 0,-0.5 -0.5625,0 0,4.5625 0.5625,0 0,-2.6875 c 0,-0.91092 0.43799,-1.4375 1.15625,-1.4375 0.6558,0 1.15625,0.41794 1.15625,1.4375 l 0,2.6875 0.5625,0 0,-2.65625 c 0,-1.03628 0.50828,-1.46875 1.1875,-1.46875 0.70265,0 1.125,0.44083 1.125,1.46875 l 0,2.65625 0.59375,0 0,-2.71875 c 0,-1.32877 -0.7116,-1.96875 -1.6875,-1.96875 -0.66361,0 -1.14087,0.26493 -1.5,0.875 -0.33571,-0.61007 -0.73481,-0.875 -1.375,-0.875 z m 28.90625,0 c -0.53869,0 -0.89085,0.16536 -1.21875,0.625 l 0,-0.5 -0.5625,0 0,4.5625 0.5625,0 0,-2.6875 c 0,-0.91092 0.43799,-1.4375 1.15625,-1.4375 0.6558,0 1.15625,0.41794 1.15625,1.4375 l 0,2.6875 0.59375,0 0,-2.65625 c 0,-1.03628 0.47703,-1.46875 1.15625,-1.46875 0.70265,0 1.125,0.44083 1.125,1.46875 l 0,2.65625 0.59375,0 0,-2.71875 c 0,-1.32877 -0.7116,-1.96875 -1.6875,-1.96875 -0.66361,0 -1.10962,0.26493 -1.46875,0.875 -0.33571,-0.61007 -0.76606,-0.875 -1.40625,-0.875 z m -148.5625,0.125 0,0.53125 2.28125,0 -1.40625,2.09375 c 0.102783,0.17924 0.208008,0.35297 0.3125,0.53125 l 1.75,-2.65625 0,-0.5 -2.9375,0 z m 63.5,0 1.8125,4.5625 0.59375,0 1.8125,-4.5625 -0.59375,0 -1.53125,3.84375 -1.5,-3.84375 -0.59375,0 z m 8.90625,0 0,0.53125 2.28125,0 -2.34375,3.46875 0,0.5625 3.15625,0 0,-0.5625 -2.5,0 2.34375,-3.5 0,-0.5 -2.9375,0 z m 16.09375,0 1.625,4.5625 0.625,0 0.90625,-3.03125 0.9375,3.03125 0.625,0 1.65625,-4.5625 -0.5625,0 -1.40625,3.8125 -1,-3.28125 -0.46875,0 -1,3.28125 -1.375,-3.8125 -0.5625,0 z m 25.1875,0 1.46875,2.21875 -1.46875,2.34375 0.65625,0 1.15625,-1.84375 1.15625,1.84375 0.65625,0 -1.5,-2.34375 1.5,-2.21875 -0.65625,0 -1.15625,1.75 -1.15625,-1.75 -0.65625,0 z m 15.96875,0 0,4.5625 c 0.19868,-0.32041 0.40068,-0.64508 0.59375,-0.96875 l 0,-3.59375 -0.59375,0 z m 10.21875,0 1.625,4.5625 0.625,0 0.90625,-3.03125 0.9375,3.03125 0.625,0 1.65625,-4.5625 -0.5625,0 -1.40625,3.8125 -1,-3.28125 -0.46875,0 -1.03125,3.28125 -1.34375,-3.8125 -0.5625,0 z m -125.78125,0.4375 c 0.921246,0 1.65625,0.78676 1.65625,1.78125 0,1.0697 -0.727197,1.875 -1.65625,1.875 -0.93686,0 -1.625,-0.7824 -1.625,-1.84375 0,-1.04463 0.680333,-1.8125 1.625,-1.8125 z m 5.3125,0 c 0.93686,0 1.65625,0.79294 1.65625,1.8125 0,1.03628 -0.703754,1.84375 -1.625,1.84375 -0.968089,0 -1.71875,-0.79912 -1.71875,-1.84375 0,-0.99449 0.758447,-1.8125 1.6875,-1.8125 z m 36.21875,0 c 0.968089,0 1.6875,0.81365 1.6875,1.875 0,1.00285 -0.742833,1.78125 -1.6875,1.78125 -0.960282,0 -1.6875,-0.78458 -1.6875,-1.8125 0,-1.05299 0.727218,-1.84375 1.6875,-1.84375 z m 55.34375,0.0312 0,1.6875 -1.59375,0 0,0.625 1.59375,0 0,1.6875 0.59375,0 0,-1.6875 1.5625,0 0,-0.625 -1.5625,0 0,-1.6875 -0.59375,0 z M 68.46875,103 c 0.804138,0 1.375,0.67447 1.375,1.59375 0,0.92763 -0.586476,1.59375 -1.375,1.59375 -0.811946,0 -1.40625,-0.68901 -1.40625,-1.625 0,-0.88585 0.617726,-1.5625 1.40625,-1.5625 z m 109,0 c 0.80414,0 1.375,0.67447 1.375,1.59375 0,0.92763 -0.58648,1.59375 -1.375,1.59375 -0.81195,0 -1.40625,-0.68901 -1.40625,-1.625 0,-0.88585 0.61773,-1.5625 1.40625,-1.5625 z m -105.6875,0.6875 0.6875,0 c 1.022739,0 1.8125,0.0655 1.8125,1.21875 0,0.89421 -0.508617,1.1875 -1.6875,1.1875 l -0.8125,0 0,-2.40625 z m 36.96875,0 0.6875,0 c 1.02274,0 1.8125,0.0655 1.8125,1.21875 0,0.89421 -0.53987,1.1875 -1.71875,1.1875 l -0.78125,0 0,-2.40625 z m 56.9375,0 0.6875,0 c 1.02274,0 1.78125,0.0655 1.78125,1.21875 0,0.89421 -0.50862,1.1875 -1.6875,1.1875 l -0.78125,0 0,-2.40625 z M 41.5,106.09375 c 0.113387,0.187 0.228479,0.3766 0.34375,0.5625 l 1.0625,0 0,-0.5625 -1.40625,0 z m 81.4375,4.71875 c -1.10862,0 -1.8125,0.78169 -1.8125,2.09375 l 0.5625,0 c 0,-1.0112 0.4927,-1.53125 1.25,-1.53125 0.72607,0 1.25,0.53747 1.25,1.28125 0,0.68528 -0.46918,1.14611 -1.09375,1.78125 l -2,2.09375 0,0.5625 3.65625,0 0,-0.5625 -2.90625,0 1.875,-1.90625 c 0.81195,-0.82735 1.0625,-1.27729 1.0625,-1.9375 0,-1.08642 -0.78978,-1.875 -1.84375,-1.875 z m 14.40625,0 c -0.8666,0 -1.46875,0.64505 -1.46875,1.65625 l 0.5625,0 c 0,-0.68528 0.34413,-1.09375 0.90625,-1.09375 0.51527,0 0.875,0.39211 0.875,0.96875 0,0.58499 -0.39885,0.96875 -1,0.96875 -0.0234,0 -0.086,0.008 -0.15625,0 l -0.125,0 0,0.53125 c 0.38255,0.008 0.53136,0.0291 0.6875,0.0625 0.57773,0.14207 0.96875,0.70026 0.96875,1.34375 0,0.78556 -0.54735,1.40625 -1.25,1.40625 -0.67922,0 -1.28125,-0.46372 -1.28125,-1.5 l -0.5625,0 c 0,1.26192 0.79759,2.0625 1.84375,2.0625 1.01493,0 1.8125,-0.88851 1.8125,-2 0,-0.74378 -0.32075,-1.30525 -0.96875,-1.65625 0.40597,-0.30085 0.59375,-0.67772 0.59375,-1.1875 0,-0.91928 -0.58652,-1.5625 -1.4375,-1.5625 z m 20.78125,0 c -0.8744,0 -1.53125,0.68283 -1.53125,1.59375 0,0.55157 0.18782,0.94915 0.65625,1.25 -0.63238,0.32593 -0.96875,0.91247 -0.96875,1.65625 0,1.08642 0.78197,1.90625 1.84375,1.90625 1.05397,0 1.8125,-0.81765 1.8125,-1.9375 0,-0.76049 -0.32856,-1.32415 -0.96875,-1.625 0.46843,-0.234 0.6875,-0.63993 0.6875,-1.25 0,-0.92763 -0.64904,-1.59375 -1.53125,-1.59375 z m 7.40625,0 c -1.78003,0 -3.125,1.3573 -3.125,3.1875 0,0.59231 0.16711,1.15112 0.4375,1.625 0.29301,-0.33368 0.5576,-0.69238 0.84375,-1.03125 -0.19713,0.0345 -0.4025,0.0769 -0.625,0.15625 -0.0625,-0.30085 -0.0937,-0.46186 -0.0937,-0.6875 0,-1.52099 1.10254,-2.6875 2.53125,-2.6875 0.238,0 0.47149,0.065 0.6875,0.125 0.12488,-0.16674 0.25172,-0.33218 0.375,-0.5 -0.3236,-0.11162 -0.66014,-0.1875 -1.03125,-0.1875 z m -112.46875,0.0937 -2.46875,6.1875 0.625,0 0.84375,-2.0937 2.65625,0 0.84375,2.09375 0.625,0 -2.46875,-6.1875 -0.65625,0 z m 3.71875,0 0,0.5625 2.75,0 -2.375,5.625 0.59375,0 2.375,-5.625 0,-0.5625 -3.34375,0 z m 9.75,0 0,6.1875 0.59375,0 0,-5.4375 3.4375,5.4375 0.5625,0 0,-6.1875 -0.5625,0 0,5.125 -3.25,-5.125 -0.78125,0 z m 5.6875,0 0,6.1875 0.5625,0 0,-0.78125 c 0.35913,0.56828 0.984855,0.90625 1.6875,0.90625 1.288183,0 2.25,-1.03569 2.25,-2.40625 0,-1.34549 -0.985239,-2.40625 -2.25,-2.40625 -0.71826,0 -1.320563,0.32961 -1.6875,0.90625 l 0,-2.40625 -0.5625,0 z m 10.75,0 0,6.1875 0.5625,0 0,-2.8125 2.28125,0 0,-0.5625 -2.28125,0 0,-2.25 2.34375,0 0,-0.5625 -2.90625,0 z m 3.40625,0 0,0.5625 2.75,0 -2.84375,5.0625 0,0.5625 3.5625,0 0,-0.5625 -2.90625,0 2.8125,-5.0625 0,-0.5625 -3.375,0 z m 7.8125,0 0,2.34375 c -0.421587,-0.54321 -1.016083,-0.84375 -1.6875,-0.84375 -1.288183,0 -2.28125,1.04405 -2.28125,2.40625 0,1.35384 1.024338,2.40625 2.34375,2.40625 0.710452,0 1.195606,-0.27729 1.625,-0.9375 l 0,0.8125 0.5625,0 0,-6.1875 -0.5625,0 z m 1.65625,0 0,6.1875 0.5625,0 0,-5.4375 3.4375,5.4375 0.59375,0 0,-6.1875 -0.59375,0 0,5.125 -3.21875,-5.125 -0.78125,0 z m 21.15625,0 0,0.5625 2.71875,0 -2.375,5.625 0.625,0 2.34375,-5.625 0,-0.5625 -3.3125,0 z m 8.3125,0 1.875,3.03125 -1.96875,3.15625 0.6875,0 1.625,-2.625 1.625,2.625 0.6875,0 -1.96875,-3.15625 1.84375,-3.03125 -0.65625,0 -1.53125,2.5 -1.53125,-2.5 -0.6875,0 z m 5.09375,0 0,6.1875 0.5625,0 0,-0.78125 c 0.35913,0.56828 0.98485,0.90625 1.6875,0.90625 1.28818,0 2.25,-1.03569 2.25,-2.40625 0,-1.34549 -0.98524,-2.40625 -2.25,-2.40625 -0.71826,0 -1.32056,0.32961 -1.6875,0.90625 l 0,-2.40625 -0.5625,0 z m 18.03125,0 -2.25,7.25 0.53125,0 2.25,-7.25 -0.53125,0 z m 3,0 0,3.875 c 0,1.67977 0.80548,2.4375 1.96875,2.4375 1.17108,0 1.96875,-0.75773 1.96875,-2.4375 l 0,-3.875 -0.59375,0 0,3.875 c 0,1.26192 -0.48498,1.84375 -1.375,1.84375 -0.90563,0 -1.375,-0.58183 -1.375,-1.84375 l 0,-3.875 -0.59375,0 z m 9.4375,0 0,6.1875 0.59375,0 0,-6.1875 -0.59375,0 z m -116.15625,0.0625 c 0.179801,0.24509 0.379286,0.47596 0.5625,0.71875 l 0,-0.71875 -0.5625,0 z m 95.34375,0 0,1.0625 0.59375,0 0,-1.0625 -0.59375,0 z m 9.71875,0 0,1.0625 0.5625,0 0,-1.0625 -0.5625,0 z m 8.34375,0.40625 c 0.55431,0 0.9375,0.41501 0.9375,1 0,0.57664 -0.38317,1 -0.90625,1 -0.56992,0 -1,-0.4379 -1,-1.03125 0,-0.57664 0.41444,-0.96875 0.96875,-0.96875 z m -104.71875,0.25 1.09375,2.84375 -2.21875,0 1.125,-2.84375 z m 9.96875,0.78125 c -0.726067,0 -1.32837,0.32961 -1.6875,0.90625 l 0,-0.78125 -0.5625,0 0,6.15625 0.5625,0 0,-2.375 c 0.374744,0.58499 0.945798,0.90625 1.65625,0.90625 1.272569,0 2.28125,-1.06912 2.28125,-2.40625 0,-1.3622 -0.977431,-2.40625 -2.25,-2.40625 z m 16.40625,0 c -0.726067,0 -1.29712,0.32961 -1.65625,0.90625 l 0,-0.78125 -0.59375,0 0,6.15625 0.59375,0 0,-2.375 c 0.374744,0.58499 0.945798,0.90625 1.65625,0.90625 1.272569,0 2.25,-1.06912 2.25,-2.40625 0,-1.3622 -0.977431,-2.40625 -2.25,-2.40625 z m 23.875,0 c -1.28038,0 -2.3125,1.07748 -2.3125,2.40625 0,1.3622 1.03215,2.40625 2.34375,2.40625 0.88221,0 1.57848,-0.42412 2.09375,-1.46875 l -0.65625,0 c -0.44501,0.63514 -0.8676,0.875 -1.46875,0.875 -0.96028,0 -1.71875,-0.8013 -1.71875,-1.8125 0,-1.02792 0.73503,-1.8125 1.6875,-1.8125 0.63238,0 1.1721,0.30454 1.5,0.90625 l 0.65625,0 c -0.34352,-0.91928 -1.16472,-1.5 -2.125,-1.5 z m 5,0 c -1.28038,0 -2.25,1.03569 -2.25,2.40625 0,1.3622 0.96965,2.40625 2.28125,2.40625 0.72607,0 1.20343,-0.28565 1.65625,-0.9375 l 0,0.8125 0.5625,0 0,-4.5625 -0.5625,0 0,0.8125 c -0.42159,-0.63514 -0.94582,-0.9375 -1.6875,-0.9375 z m 5.3125,0 c -1.24134,0 -2.21875,1.04623 -2.21875,2.375 0,1.35384 0.98524,2.4375 2.25,2.4375 0.96809,0 1.78925,-0.75587 2.0625,-1.625 l -0.59375,0 c -0.24202,0.62678 -0.852,1.03125 -1.5,1.03125 -0.8744,0 -1.60941,-0.72244 -1.65625,-1.625 l 3.875,0 c 0,-1.62127 -0.95399,-2.59375 -2.21875,-2.59375 z m 26.09375,0.125 0,4.25 c 0,0.95271 -0.19575,1.27071 -0.84375,1.3125 l 0,0.59375 c 0.96809,-0.0418 1.4375,-0.58583 1.4375,-1.90625 l 0,-4.25 -0.59375,0 z m 9.71875,0 0,4.5625 0.5625,0 0,-4.5625 -0.5625,0 z M 47.875,113 l 0,1.6875 -0.1875,0 c 0.248011,0.29273 0.496858,0.58615 0.75,0.875 l 0,-0.25 1.59375,0 0,-0.625 -1.59375,0 0,-1.6875 -0.5625,0 z m 15.46875,0 c 0.960282,0 1.6875,0.75951 1.6875,1.8125 0,1.02792 -0.735025,1.8125 -1.6875,1.8125 -0.975896,0 -1.6875,-0.79076 -1.6875,-1.84375 0,-1.0112 0.742833,-1.78125 1.6875,-1.78125 z m 11.125,0 c 0.960282,0 1.65625,0.75333 1.65625,1.78125 0,1.05299 -0.727218,1.84375 -1.6875,1.84375 -0.93686,0 -1.6875,-0.83255 -1.6875,-1.84375 0,-1.0112 0.766275,-1.78125 1.71875,-1.78125 z m 5.3125,0 c 0.960282,0 1.6875,0.75951 1.6875,1.8125 0,1.02792 -0.735025,1.8125 -1.6875,1.8125 -0.975896,0 -1.71875,-0.79076 -1.71875,-1.84375 0,-1.0112 0.774083,-1.78125 1.71875,-1.78125 z m 12.6875,0 c 0.944667,0 1.71875,0.80965 1.71875,1.8125 0,1.00285 -0.742811,1.8125 -1.65625,1.8125 -0.975896,0 -1.71875,-0.79912 -1.71875,-1.84375 0,-1.00285 0.727197,-1.78125 1.65625,-1.78125 z m 16.1875,0 c 0.93686,0 1.6875,0.76169 1.6875,1.78125 0,1.03628 -0.735,1.84375 -1.65625,1.84375 -0.96809,0 -1.6875,-0.79912 -1.6875,-1.84375 C 107,113.78676 107.7272,113 108.65625,113 z m 5,0 c 0.0957,-0.0179 0.17976,0 0.28125,0 0.82756,0 1.46107,0.55783 1.65625,1.46875 l -3.25,0 c 0.13663,-0.76781 0.64239,-1.34318 1.3125,-1.46875 z m 19,0 c 0.96028,0 1.65625,0.75333 1.65625,1.78125 0,1.05299 -0.72722,1.84375 -1.6875,1.84375 -0.93686,0 -1.6875,-0.83255 -1.6875,-1.84375 0,-1.0112 0.76628,-1.78125 1.71875,-1.78125 z m 10.5625,0 0,1.6875 -1.59375,0 0,0.625 1.59375,0 0,1.6875 0.59375,0 0,-1.6875 1.5625,0 0,-0.625 -1.5625,0 0,-1.6875 -0.59375,0 z m 14.90625,0.96875 c 0.72607,0 1.25,0.53529 1.25,1.3125 0,0.78556 -0.52393,1.375 -1.25,1.375 -0.74949,0 -1.28125,-0.58108 -1.28125,-1.375 0,-0.77721 0.53957,-1.3125 1.28125,-1.3125 z M 79.25,121.25 c -1.124232,0 -1.9375,0.92558 -1.9375,2.1875 0,1.1867 0.789761,2.125 1.8125,2.125 0.242022,0 0.429863,-0.0309 0.6875,-0.15625 l -1.34375,2.125 0.65625,0 1.40625,-2.25 c 0.546502,-0.86913 0.6875,-1.26493 0.6875,-1.875 0,-1.22849 -0.828903,-2.15625 -1.96875,-2.15625 z m 12.125,0 c -1.780035,0 -3.125,1.38855 -3.125,3.21875 0,1.7717 1.391808,3.1875 3.125,3.1875 0.632381,0 1.234705,-0.18025 1.71875,-0.53125 0.398166,0.39278 0.742555,0.52289 1.28125,0.53125 l 0,-0.59375 c -0.04684,0.008 -0.132828,0.0312 -0.15625,0.0312 -0.242022,0 -0.422078,-0.11811 -0.71875,-0.34375 0.624574,-0.56828 0.96875,-1.36815 0.96875,-2.3125 0,-1.8302 -1.32933,-3.1875 -3.09375,-3.1875 z m 11.4375,0 c -1.78003,0 -3.125,1.38855 -3.125,3.21875 0,1.7717 1.36056,3.1875 3.09375,3.1875 0.63238,0 1.26596,-0.18025 1.75,-0.53125 0.39817,0.39278 0.71131,0.52289 1.25,0.53125 l 0,-0.59375 c -0.0468,0.008 -0.10158,0.0312 -0.125,0.0312 -0.24202,0 -0.42208,-0.11811 -0.71875,-0.34375 0.62457,-0.56828 0.9375,-1.36815 0.9375,-2.3125 0,-1.8302 -1.29808,-3.1875 -3.0625,-3.1875 z m 46.40625,0 c -0.92905,0 -1.59375,0.69519 -1.59375,1.65625 0,0.42621 0.14861,0.86593 0.40625,1.125 0.22641,0.234 0.39108,0.31397 1.0625,0.53125 0.99151,0.32593 1.3125,0.60433 1.3125,1.28125 0,0.71035 -0.50045,1.25 -1.15625,1.25 -0.648,0 -1.10162,-0.4539 -1.1875,-1.28125 l -0.625,0 c 0.053,1.07699 0.73265,1.80034 1.71875,1.84375 0.59034,-0.39881 1.14211,-0.83554 1.71875,-1.25 0.0547,-0.18339 0.0937,-0.3847 0.0937,-0.59375 0,-0.54321 -0.19556,-1.02 -0.5625,-1.3125 -0.23422,-0.18386 -0.46916,-0.30779 -1.0625,-0.5 -0.52308,-0.16714 -0.72666,-0.23293 -0.875,-0.375 -0.16395,-0.15043 -0.25,-0.43461 -0.25,-0.71875 0,-0.61842 0.42227,-1.09375 1,-1.09375 0.58554,0 1.03125,0.45643 1.03125,1.125 l 0.59375,0 c 0,-1.00285 -0.68033,-1.6875 -1.625,-1.6875 z m -90.5625,0.125 0,1.59375 -0.90625,0 0,0.5625 0.90625,0 0,1.5625 c 0.200247,0.15338 0.391699,0.3173 0.59375,0.46875 l 0,-2.03125 0.9375,0 0,-0.5625 -0.9375,0 0,-1.59375 -0.59375,0 z m 2.65625,0 0,1.59375 -0.90625,0 0,0.5625 0.90625,0 0,3.53125 c 0.197656,0.13762 0.394532,0.27044 0.59375,0.40625 l 0,-3.9375 0.9375,0 0,-0.5625 -0.9375,0 0,-1.59375 -0.59375,0 z m 12.375,0 0,6.15625 0.5625,0 0,-0.9375 0.6875,-0.875 1.40625,1.8125 0.71875,0 -1.78125,-2.25 1.6875,-2.3125 -0.71875,0 -2,2.78125 0,-4.375 -0.5625,0 z m 21.03125,0 2,4.09375 0,2.0625 0.59375,0 0,-2.0625 2,-4.09375 -0.625,0 -1.6875,3.4375 -1.625,-3.4375 -0.65625,0 z m 15.1875,0 0,6.15625 0.5625,0 0,-2.875 3,0 0,2.875 0.59375,0 0,-6.15625 -0.59375,0 0,2.71875 -3,0 0,-2.71875 -0.5625,0 z m 5.34375,0 0,6.15625 0.5625,0 0,-5.59375 0.8125,0 c 1.34283,0 1.9375,0.37833 1.9375,1.40625 0,1.11149 -0.54017,1.40625 -2.15625,1.40625 l 1.9375,2.78125 0.71875,0 -1.625,-2.28125 c 1.10862,-0.12536 1.71875,-0.81147 1.71875,-1.90625 0,-1.28699 -0.68874,-1.96875 -2.5,-1.96875 l -1.40625,0 z m 4.71875,0 0,6.15625 1.5625,0 c 2.25627,0 3.3125,-1.28245 3.3125,-3.0625 0,-1.16163 -0.45371,-2.08179 -1.3125,-2.625 -0.5465,-0.351 -1.14134,-0.46875 -2.1875,-0.46875 l -1.375,0 z m 5.8125,0 0,6.15625 0.59375,0 0,-5.5 2.15625,5.5 0.5,0 2.15625,-5.5 0,5.5 0.59375,0 0,-6.15625 -0.90625,0 -2.09375,5.25 -2.09375,-5.25 -0.90625,0 z m 7.1875,0 0,6.15625 0.59375,0 0,-5.5 2.15625,5.5 0.5,0 2.15625,-5.5 0,5.5 0.59375,0 0,-6.15625 -0.90625,0 -2.09375,5.25 -2.09375,-5.25 -0.90625,0 z m 7.59375,0 0,1.59375 -0.90625,0 0,0.5625 0.90625,0 0,4 0.59375,0 0,-4 0.96875,0 0,-0.5625 -0.96875,0 0,-1.59375 -0.59375,0 z m 11.1875,0 0,4.40625 c 0.18636,-0.13817 0.37765,-0.26645 0.5625,-0.40625 l 0,-4 -0.5625,0 z m 3.5,0 0,1.6875 c 0.20346,-0.17107 0.39241,-0.35811 0.59375,-0.53125 l 0,-1.15625 -0.59375,0 z m -48.59375,0.0312 0,1.0625 0.5625,0 0,-1.0625 -0.5625,0 z m 1.59375,0 0,1.0625 0.5625,0 0,-1.0625 -0.5625,0 z m -29,0.40625 c 0.811946,0 1.40625,0.68901 1.40625,1.625 0,0.88585 -0.617726,1.5625 -1.40625,1.5625 -0.804138,0 -1.375,-0.64322 -1.375,-1.5625 0,-0.93599 0.586476,-1.625 1.375,-1.625 z m 12.125,0 c 1.420905,0 2.5,1.1458 2.5,2.625 0,0.72706 -0.250362,1.36304 -0.78125,1.90625 C 92.133468,125.44119 91.311711,125 90.15625,125 c -0.445009,0 -0.773741,0.06 -1.21875,0.21875 -0.06246,-0.30085 -0.09375,-0.49311 -0.09375,-0.71875 0,-1.52099 1.102538,-2.6875 2.53125,-2.6875 z m 11.40625,0 c 1.4209,0 2.53125,1.1458 2.53125,2.625 0,0.72706 -0.28161,1.36304 -0.8125,1.90625 -0.96028,-0.90251 -1.75079,-1.3437 -2.90625,-1.3437 -0.44501,0 -0.80499,0.06 -1.25,0.21875 -0.0625,-0.30085 -0.0937,-0.49311 -0.0937,-0.71875 0,-1.52099 1.10254,-2.6875 2.53125,-2.6875 z m 17.78125,0.125 0.8125,0 c 0.8744,0 1.40655,0.0909 1.84375,0.375 0.66361,0.42621 1.0625,1.20572 1.0625,2.125 0,0.81064 -0.31286,1.54036 -0.84375,2 -0.46062,0.39278 -1.03976,0.53125 -2.0625,0.53125 l -0.8125,0 0,-5.03125 z m -63.21875,0.9375 c -0.462575,0.0251 -0.772372,0.16093 -1,0.4375 0.130748,0.10877 0.274644,0.20458 0.40625,0.3125 0.165513,-0.0881 0.361787,-0.13214 0.59375,-0.15625 l 0,-0.59375 z m 87.5,0 c -1.28038,0 -2.3125,1.04623 -2.3125,2.375 0,1.3622 1.03215,2.40625 2.34375,2.40625 0.88221,0 1.57848,-0.42412 2.09375,-1.46875 l -0.65625,0 c -0.44501,0.63514 -0.8676,0.90625 -1.46875,0.90625 -0.96028,0 -1.71875,-0.83255 -1.71875,-1.84375 0,-1.02792 0.73503,-1.8125 1.6875,-1.8125 0.63238,0 1.1721,0.30454 1.5,0.90625 l 0.65625,0 c -0.34352,-0.91928 -1.16472,-1.46875 -2.125,-1.46875 z m -88.875,0.0937 c 0.05624,0.0475 0.09985,0.10895 0.15625,0.15625 l 0,-0.15625 -0.15625,0 z m 7.03125,0 1.5,2.25 -1.5,2.3125 0.65625,0 1.15625,-1.8125 1.15625,1.8125 0.65625,0 -1.46875,-2.3125 1.46875,-2.25 -0.65625,0 -1.15625,1.78125 -1.15625,-1.78125 -0.65625,0 z m 3.75,0 1.625,4.5625 0.625,0 0.9375,-3.03125 0.9375,3.03125 0.59375,0 1.65625,-4.5625 -0.5625,0 -1.375,3.84375 -1,-3.28125 -0.5,0 -1,3.28125 -1.34375,-3.84375 -0.59375,0 z m 14.75,0 1.625,4.5625 0.625,0 0.90625,-3.03125 0.9375,3.03125 0.625,0 1.65625,-4.5625 -0.5625,0 -1.40625,3.84375 -1,-3.28125 -0.46875,0 -1,3.28125 -1.375,-3.84375 -0.5625,0 z m 25.15625,0 0,4.25 c 0,0.95271 -0.227,1.30196 -0.875,1.34375 l 0,0.59375 c 0.96809,-0.0418 1.4375,-0.61708 1.4375,-1.9375 l 0,-4.25 -0.5625,0 z m 1.59375,0 0,4.25 c 0,0.95271 -0.227,1.30196 -0.875,1.34375 l 0,0.59375 c 0.96809,-0.0418 1.4375,-0.61708 1.4375,-1.9375 l 0,-4.25 -0.5625,0 z m -18.1875,2.59375 c 0.983703,0 1.727133,0.34561 2.5625,1.15625 -0.390358,0.25907 -0.765955,0.375 -1.25,0.375 -0.952475,0 -1.851813,-0.60833 -2.21875,-1.34375 0.312287,-0.13371 0.54712,-0.1875 0.90625,-0.1875 z m 11.4375,0 c 0.9837,0 1.72713,0.34561 2.5625,1.15625 -0.39036,0.25907 -0.79721,0.375 -1.28125,0.375 -0.95247,0 -1.82056,-0.60833 -2.1875,-1.34375 0.31229,-0.13371 0.54712,-0.1875 0.90625,-0.1875 z m 15.65625,6.15625 c -0.8744,0 -1.53125,0.68283 -1.53125,1.59375 0,0.55157 0.21907,0.9179 0.6875,1.21875 -0.63238,0.32593 -1,0.91247 -1,1.65625 0,1.08642 0.81322,1.90625 1.875,1.90625 1.05397,0 1.8125,-0.81765 1.8125,-1.9375 0,-0.76049 -0.35981,-1.32415 -1,-1.625 0.46843,-0.234 0.6875,-0.60868 0.6875,-1.21875 0,-0.92763 -0.64904,-1.59375 -1.53125,-1.59375 z m 4.125,0 c -0.92905,0 -1.59375,0.69519 -1.59375,1.65625 0,0.42621 0.14861,0.83468 0.40625,1.09375 0.22641,0.234 0.39108,0.31397 1.0625,0.53125 0.99151,0.32593 1.3125,0.63558 1.3125,1.3125 0,0.71035 -0.50045,1.21875 -1.15625,1.21875 -0.648,0 -1.10162,-0.4539 -1.1875,-1.28125 l -0.625,0 c 0.0546,1.11149 0.77415,1.84375 1.8125,1.84375 0.99932,0 1.71875,-0.75951 1.71875,-1.8125 0,-0.54321 -0.19556,-1.05125 -0.5625,-1.34375 -0.23422,-0.18386 -0.46916,-0.27654 -1.0625,-0.46875 -0.52308,-0.16714 -0.72666,-0.26418 -0.875,-0.40625 -0.16395,-0.15043 -0.25,-0.43461 -0.25,-0.71875 0,-0.61842 0.42227,-1.0625 1,-1.0625 0.58554,0 1.03125,0.42518 1.03125,1.09375 l 0.59375,0 c 0,-1.00285 -0.68033,-1.65625 -1.625,-1.65625 z m -52.125,0.0937 c 0.04127,0.0217 0.08367,0.0408 0.125,0.0625 l 0,-0.0625 -0.125,0 z m 1.90625,0 0.46875,1.1875 c 0.252225,0.12174 0.49605,0.25588 0.75,0.375 l -0.59375,-1.5625 -0.625,0 z m 4.71875,0 -1.03125,2.65625 c 0.175963,0.075 0.354533,0.14498 0.53125,0.21875 l 1.125,-2.875 -0.625,0 z m 11.71875,0 0,6.1875 0.5625,0 0,-6.1875 -0.5625,0 z m 7.0625,0 0,6.1875 0.59375,0 0,-1.6875 0.75,-1 1.90625,2.6875 0.75,0 -2.28125,-3.1875 2.28125,-3 -0.75,0 -2.65625,3.5625 0,-3.5625 -0.59375,0 z m 6.09375,0 0,0.5625 2.75,0 -2.375,5.625 0.59375,0 2.375,-5.625 0,-0.5625 -3.34375,0 z m 6.40625,0 -2.5,6.1875 0.625,0 0.84375,-2.09375 2.6875,0 0.84375,2.09375 0.625,0 -2.5,-6.1875 -0.625,0 z m 17.375,0 0,0.5625 0.96875,0 0,5.625 0.5625,0 0,-6.1875 -1.53125,0 z m 7.375,0 0,2.34375 c -0.42159,-0.54321 -0.98483,-0.84375 -1.65625,-0.84375 -1.28818,0 -2.28125,1.04405 -2.28125,2.40625 0,0.67692 0.23954,1.2592 0.65625,1.6875 0.22118,-0.0665 0.436,-0.1504 0.65625,-0.21875 -0.43706,-0.33004 -0.71875,-0.86444 -0.71875,-1.5 0,-1.00285 0.7272,-1.8125 1.65625,-1.8125 0.94467,0 1.71875,0.80965 1.71875,1.8125 0,0.2266 -0.024,0.45443 -0.0937,0.65625 0.22037,-0.0769 0.4369,-0.17121 0.65625,-0.25 l 0,-4.28125 -0.59375,0 z m 5.375,0 0,2.34375 c -0.42159,-0.54321 -1.01608,-0.84375 -1.6875,-0.84375 -1.28818,0 -2.28125,1.04405 -2.28125,2.40625 0,0.0333 -0.001,0.0609 0,0.0937 0.19652,-0.0731 0.39808,-0.14417 0.59375,-0.21875 0.0441,-0.9591 0.75603,-1.71875 1.65625,-1.71875 0.47233,0 0.90744,0.20323 1.21875,0.53125 0.35254,-0.15106 0.71304,-0.28148 1.0625,-0.4375 l 0,-2.15625 -0.5625,0 z m 1.0625,0 0.75,1.5625 c 0.17792,-0.0834 0.35417,-0.16533 0.53125,-0.25 l -0.625,-1.3125 -0.65625,0 z m -68.34375,0.0625 0,0.34375 c 0.199689,0.10235 0.392915,0.21182 0.59375,0.3125 l 0,-0.65625 -0.59375,0 z m 29.1875,0 0,1.03125 0.59375,0 0,-1.03125 -0.59375,0 z m 18.0625,0.375 c 0.55431,0 0.96875,0.44626 0.96875,1.03125 0,0.57664 -0.41442,1 -0.9375,1 -0.56992,0 -0.96875,-0.4379 -0.96875,-1.03125 0,-0.57664 0.38319,-1 0.9375,-1 z m -9.78125,0.25 1.125,2.84375 -2.25,0 1.125,-2.84375 z m -28.34375,0.8125 c -1.152653,0 -2.026374,0.86368 -2.1875,2.03125 0.174286,0.0683 0.356274,0.12045 0.53125,0.1875 0.08276,-0.95462 0.786822,-1.65625 1.6875,-1.65625 0.968089,0 1.6875,0.7824 1.6875,1.84375 0,0.351 -0.09014,0.69402 -0.25,0.96875 0.255504,0.0855 0.524427,0.13581 0.78125,0.21875 l 0,-3.5 -0.5625,0 0,0.78125 c -0.35913,-0.58499 -0.961433,-0.875 -1.6875,-0.875 z m 5.3125,0 c -1.264761,0 -2.21875,1.03787 -2.21875,2.375 0,0.68397 0.206548,1.25943 0.59375,1.6875 0.744944,0.22463 1.49473,0.42184 2.25,0.625 0.9441,-0.26062 1.59375,-1.13317 1.59375,-2.28125 0,-1.39563 -0.938374,-2.40625 -2.21875,-2.40625 z m 6.90625,0 c -1.272569,0 -2.25,1.05241 -2.25,2.40625 0,1.34549 0.977431,2.375 2.25,2.375 0.710452,0 1.281506,-0.29001 1.65625,-0.875 l 0,2.375 0.59375,0 0,-6.1875 -0.59375,0 0,0.78125 c -0.35913,-0.58499 -0.930183,-0.875 -1.65625,-0.875 z m 7.84375,0.0937 0,4.59375 0.59375,0 0,-4.59375 -0.59375,0 z m -14.75,0.46875 c 0.93686,0 1.65625,0.7824 1.65625,1.84375 0,1.04463 -0.695947,1.8125 -1.625,1.8125 -0.983703,0 -1.6875,-0.77405 -1.6875,-1.84375 0,-1.03628 0.711583,-1.8125 1.65625,-1.8125 z m 6.90625,0 c 0.968089,0 1.71875,0.7824 1.71875,1.84375 0,1.00285 -0.774083,1.8125 -1.71875,1.8125 -0.960282,0 -1.6875,-0.78458 -1.6875,-1.8125 0,-1.05299 0.727218,-1.84375 1.6875,-1.84375 z m 21.09375,0.0312 0,1.6875 -1.59375,0 0,0.625 1.59375,0 0,1.6875 0.59375,0 0,-1.6875 1.5625,0 0,-0.625 -1.5625,0 0,-1.6875 -0.59375,0 z m 4.8125,0.9375 c 0.72607,0 1.25,0.56654 1.25,1.34375 0,0.78556 -0.49268,1.34375 -1.21875,1.34375 -0.74949,0 -1.28125,-0.54983 -1.28125,-1.34375 0,-0.77721 0.50832,-1.34375 1.25,-1.34375 z"
         transform="translate(0,852.36218)"
         id="text4029"
         inkscape:connector-curvature="0" />
    </g>
    <g
       inkscape:groupmode="layer"
       id="layer2"
       inkscape:label="text"
       sodipodi:insensitive="true">
      <text
         sodipodi:linespacing="125%"
         id="text4098"
         y="980.42517"
         x="173.71121"
         style="font-size:12px;font-style:normal;font-variant:normal;font-weight:normal;font-stretch:normal;line-height:125%;letter-spacing:0px;word-spacing:0px;fill:#0bc875;fill-opacity:1;stroke:none;filter:url(#filter4094);font-family:TeX Gyre Adventor;-inkscape-font-specification:TeX Gyre Adventor"
         xml:space="preserve"><tspan
           id="tspan4100"
           style="font-size:20px;font-style:normal;font-variant:normal;font-weight:normal;font-stretch:normal;font-family:Droid Sans;-inkscape-font-specification:Droid Sans"
           y="980.42517"
           x="173.71121"
           sodipodi:role="line">ACTIVISMO Y </tspan><tspan
           id="tspan4102"
           style="font-size:20px;font-style:normal;font-variant:normal;font-weight:normal;font-stretch:normal;font-family:Droid Sans;-inkscape-font-specification:Droid Sans"
           y="1005.4252"
           x="173.71121"
           sodipodi:role="line">PRIVACIDAD</tspan></text>
      <text
         xml:space="preserve"
         style="font-size:12px;font-style:normal;font-variant:normal;font-weight:normal;font-stretch:normal;line-height:125%;letter-spacing:0px;word-spacing:0px;fill:#0bc875;fill-opacity:1;stroke:none;font-family:TeX Gyre Adventor;-inkscape-font-specification:TeX Gyre Adventor"
         x="173.71121"
         y="980.42517"
         id="text3977"
         sodipodi:linespacing="125%"><tspan
           sodipodi:role="line"
           x="173.71121"
           y="980.42517"
           style="font-size:20px;font-style:normal;font-variant:normal;font-weight:normal;font-stretch:normal;font-family:Droid Sans;-inkscape-font-specification:Droid Sans"
           id="tspan3981">ACTIVISMO Y </tspan><tspan
           sodipodi:role="line"
           x="173.71121"
           y="1005.4252"
           style="font-size:20px;font-style:normal;font-variant:normal;font-weight:normal;font-stretch:normal;font-family:Droid Sans;-inkscape-font-specification:Droid Sans"
           id="tspan3985">PRIVACIDAD</tspan></text>
    </g>
  </g>
</svg>
